<svg xmlns="http://www.w3.org/2000/svg" version="1.1" xmlns:xlink="http://www.w3.org/1999/xlink" xmlns:svgjs="http://svgjs.dev/svgjs" viewBox="0 0 800 800"><defs><linearGradient x1="50%" y1="0%" x2="50%" y2="100%" id="ccchaos-grad"><stop stop-color="hsl(206, 75%, 49%)" stop-opacity="1" offset="0%"></stop><stop stop-color="hsl(331, 90%, 56%)" stop-opacity="1" offset="100%"></stop></linearGradient></defs><g stroke-width="2" stroke="url(#ccchaos-grad)" fill="none" stroke-linecap="round"><path d="M398.63 102.69C408.47 104.75 418.51 107.68 428.74 111.34 438.99 115.19 449.45 119.54 460.1 124.25 470.79 128.82 481.67 133.56 492.7 138.37 503.76 142.78 514.93 147.17 526.13 151.48 537.26 155.3 548.32 159.06 559.16 162.75 569.74 166 579.92 169.28 589.5 172.63 598.54 175.67 606.74 178.9 613.91 182.37 622.82 187.56 632.77 199.88 633.73 207.21 633.35 212.37 632.01 218.04 629.95 224.19 628.09 230.5 626.17 237.3 624.58 244.53 624.22 251.91 624.89 259.7 626.9 267.84 630.87 276.11 636.48 284.68 643.72 293.5 652.72 302.41 662.88 311.52 673.76 320.78 685.08 330.08 695.97 339.5 705.72 348.99 714.06 358.49 720.07 368.03 723.22 377.57 723.74 387.11 721.1 396.42 715.6 405.48 708.02 414.54 698.46 423.37 687.57 431.97 676.27 440.61 664.86 449.05 653.93 457.33 644.18 465.69 635.69 473.95 628.69 482.14 623.57 490.51 619.97 498.9 617.74 507.34 617.09 516.06 617.28 524.93 617.97 533.98 619.37 543.38 620.6 553.02 621.36 562.92 621.97 573.15 621.63 583.62 620.19 594.26 618.11 605.11 614.76 616.01 610.19 626.81 604.86 637.54 598.4 647.92 590.94 657.76 582.88 667.1 574.02 675.58 564.55 682.98 554.71 689.46 544.45 694.57 533.92 698.17 523.23 700.61 512.41 701.44 501.57 700.64 490.69 698.82 479.85 695.59 469.14 691.09 458.43 686.14 447.86 680.43 437.47 674.25 427.09 668.48 416.87 662.87 406.84 657.7 396.8 653.77 387.16 650.8 377.91 648.87 368.62 648.42 359.68 648.94 351.07 650.29 342.4 652.79 334.01 655.72 325.89 658.83 317.65 662.43 309.62 665.71 301.77 668.43 293.75 670.94 285.84 672.49 278.03 672.94 269.98 672.72 261.96 671.21 253.97 668.42 245.71 664.79 237.46 659.91 229.21 653.87 220.75 647.1 212.34 639.34 204.02 630.75 195.62 621.65 187.42 611.94 179.51 601.76 171.71 591.33 164.35 580.62 157.53 569.74 151.03 558.81 145.19 547.82 140.1 536.87 135.45 525.97 131.59 515.15 128.55 504.44 125.91 493.83 124.01 483.33 122.81 472.97 121.79 462.69 121.3 452.52 121.27 442.47 121.09 432.46 121.15 422.55 121.4 412.73 121.23 402.94 121.1 393.21 121 383.58 120.41 373.95 119.89 364.63 119.51 355.63 118.84 346.63 118.48 337.95 118.53 329.6 118.61 321.25 119.3 313.25 120.66 305.6 122.35 297.96 124.84 290.67 128.14 283.76 131.89 276.83 136.47 270.25 141.8 264.03 147.52 257.75 153.9 251.78 160.84 246.12 167.97 240.32 175.5 234.76 183.33 229.41 191.13 223.82 199.09 218.37 207.13 213 214.97 207.32 222.82 201.65 230.67 195.98 238.22 189.93 245.77 183.83 253.32 177.7 260.58 171.2 267.89 164.69 275.28 158.22 282.44 151.51 289.76 144.93 297.25 138.6 304.59 132.24 312.17 126.29 320.01 120.87 327.76 115.69 335.83 111.23 344.22 107.6 352.55 104.46 361.25 102.29 370.31 101.15 379.35 100.61 388.78 101.12 398.62 102.69" stroke-dasharray="10 7" transform="rotate(0, 400, 400)" opacity="0.52"></path><path d="M405.27 113.36C414.88 115.4 424.68 118.26 434.63 121.83 444.61 125.59 454.76 129.85 465.05 134.48 475.36 138.99 485.79 143.69 496.3 148.49 506.79 152.94 517.29 157.38 527.71 161.77 538 165.7 548.09 169.57 557.84 173.38 567.28 176.76 576.21 180.15 584.45 183.57 592.15 186.68 598.96 189.93 604.74 193.37 611.75 198.42 618.76 210.08 618.94 216.89 617.74 224.24 613.5 241.36 612.23 251.11 612.8 257.87 614.42 265.03 617.34 272.54 622.03 280.15 628.19 288.09 635.75 296.29 644.81 304.57 654.79 313.08 665.27 321.77 676.04 330.5 686.28 339.38 695.37 348.37 703.13 357.38 708.7 366.47 711.64 375.61 712.18 384.76 709.82 393.74 704.8 402.54 697.85 411.35 689.01 419.99 678.84 428.48 668.17 437.01 657.23 445.41 646.56 453.72 636.82 462.11 628.09 470.47 620.6 478.82 614.77 487.32 610.31 495.9 607.13 504.56 605.46 513.46 604.7 522.52 604.55 531.76 605.23 541.28 605.97 551.01 606.47 560.93 607.06 571.1 606.96 581.42 606 591.82 604.61 602.32 602.16 612.76 598.63 623 594.48 633.07 589.27 642.71 583.09 651.73 576.36 660.21 568.8 667.8 560.55 674.31 551.93 679.94 542.79 684.26 533.27 687.14 523.55 688.99 513.59 689.36 503.5 688.25 493.33 686.25 483.11 682.99 472.92 678.6 462.72 673.86 452.58 668.45 442.54 662.62 432.52 657.2 422.6 651.92 412.82 647.03 403.03 643.27 393.59 640.36 384.49 638.38 375.36 637.75 366.53 637.99 357.98 638.99 349.37 641.08 341 643.59 332.84 646.31 324.57 649.54 316.47 652.55 308.5 655.11 300.37 657.57 292.32 659.23 284.33 659.94 276.14 660.11 267.97 659.15 259.82 657.03 251.46 654.18 243.11 650.16 234.8 645.06 226.35 639.26 217.98 632.5 209.76 624.9 201.53 616.79 193.56 608.01 185.92 598.71 178.45 589.11 171.46 579.16 165.04 568.96 158.96 558.64 153.56 548.2 148.9 537.72 144.68 527.24 141.22 516.78 138.55 506.39 136.24 496.05 134.63 485.8 133.68 475.67 132.87 465.6 132.54 455.63 132.63 445.8 132.55 436 132.68 426.31 132.96 416.74 132.81 407.18 132.69 397.73 132.58 388.41 131.97 379.08 131.42 370.08 130.98 361.42 130.23 352.75 129.77 344.42 129.68 336.43 129.6 328.43 130.08 320.76 131.2 313.45 132.61 306.12 134.78 299.13 137.74 292.48 141.13 285.8 145.32 279.43 150.26 273.38 155.61 267.24 161.63 261.37 168.23 255.75 175.07 249.98 182.36 244.39 189.99 238.97 197.66 233.31 205.53 227.74 213.55 222.24 221.42 216.42 229.36 210.61 237.31 204.78 245.02 198.61 252.73 192.4 260.44 186.18 267.89 179.64 275.37 173.12 282.91 166.67 290.22 160.03 297.64 153.57 305.2 147.38 312.59 141.21 320.18 135.47 328 130.26 335.7 125.33 343.68 121.09 351.95 117.67 360.15 114.73 368.69 112.72 377.57 111.7 386.42 111.25 395.65 111.8 405.26 113.36" stroke-dasharray="8 8" transform="rotate(4.04, 400, 400)" opacity="0.75"></path><path d="M411.45 124.04C420.81 126.03 430.31 128.83 439.93 132.31 449.56 135.97 459.3 140.13 469.12 144.66 478.94 149.11 488.81 153.76 498.66 158.53 508.45 162.99 518.15 167.47 527.66 171.91 537.01 175.94 546.04 179.92 554.64 183.85 562.91 187.36 570.59 190.86 577.53 194.39 586.74 199.23 599.48 209.32 602.78 214.82 604.31 220.51 603.05 233.73 601.35 241.36 600.68 246.65 600.32 252.36 600.55 258.47 602.03 264.67 604.53 271.26 608.24 278.19 613.56 285.21 620.15 292.55 627.92 300.18 636.95 307.86 646.68 315.8 656.73 323.95 666.93 332.13 676.52 340.5 684.97 349.02 692.17 357.55 697.32 366.22 700.06 374.99 700.62 383.76 698.51 392.43 693.95 400.99 687.61 409.55 679.47 418.03 670.01 426.4 659.97 434.82 649.55 443.19 639.22 451.5 629.59 459.91 620.74 468.33 612.9 476.78 606.49 485.38 601.29 494.07 597.25 502.86 594.63 511.86 592.92 521 591.9 530.31 591.78 539.83 591.89 549.51 591.97 559.31 592.31 569.29 592.2 579.33 591.47 589.35 590.51 599.39 588.68 609.27 585.95 618.86 582.75 628.21 578.59 637.06 573.52 645.23 567.98 652.85 561.62 659.57 554.55 665.21 547.11 670.03 539.09 673.62 530.62 675.86 521.92 677.17 512.9 677.14 503.63 675.77 494.27 673.64 484.76 670.38 475.18 666.13 465.57 661.61 455.94 656.49 446.33 651.02 436.73 645.94 427.17 640.98 417.67 636.35 408.17 632.77 398.95 629.93 390.01 627.9 381.04 627.11 372.31 627.1 363.81 627.78 355.25 629.48 346.88 631.58 338.68 633.91 330.38 636.77 322.19 639.48 314.11 641.85 305.89 644.21 297.72 645.9 289.59 646.79 281.3 647.27 273.03 646.74 264.79 645.19 256.4 643.02 248.05 639.78 239.77 635.52 231.41 630.65 223.18 624.83 215.16 618.19 207.18 611.05 199.51 603.22 192.22 594.83 185.16 586.11 178.59 576.98 172.62 567.53 167.01 557.93 162.07 548.13 157.86 538.22 154.07 528.26 151.01 518.27 148.7 508.3 146.72 498.34 145.38 488.44 144.66 478.63 144.04 468.85 143.86 459.16 144.04 449.6 144.04 440.06 144.23 430.63 144.53 421.34 144.41 412.05 144.29 402.89 144.16 393.86 143.54 384.83 142.97 376.14 142.47 367.79 141.67 359.43 141.12 351.4 140.91 343.72 140.68 336.01 140.97 328.63 141.85 321.59 142.99 314.51 144.86 307.74 147.46 301.29 150.48 294.78 154.27 288.56 158.8 282.61 163.74 276.55 169.36 270.71 175.57 265.09 182.07 259.3 189.04 253.66 196.4 248.14 203.86 242.38 211.58 236.69 219.48 231.04 227.31 225.1 235.25 219.15 243.24 213.2 251.04 206.93 258.87 200.65 266.71 194.37 274.33 187.83 281.97 181.33 289.64 174.95 297.11 168.42 304.67 162.11 312.31 156.09 319.81 150.13 327.45 144.62 335.27 139.65 342.99 134.96 350.93 130.96 359.12 127.76 367.24 125.01 375.65 123.16 384.37 122.26 393.06 121.89 402.08 122.48 411.44 124.03" stroke-dasharray="5 8" transform="rotate(8.08, 400, 400)" opacity="0.80"></path><path d="M416.62 134.71C425.7 136.67 434.86 139.39 444.07 142.76 453.29 146.33 462.55 150.38 471.8 154.8 481.04 159.16 490.24 163.75 499.33 168.47 508.34 172.93 517.16 177.42 525.7 181.91 534.05 186.02 542.01 190.1 549.46 194.13 556.59 197.77 563.08 201.39 568.83 205.03 576.36 210.02 586.28 220.2 588.61 225.61 589.66 231.1 588.79 243.6 587.91 250.72 587.98 255.62 588.45 260.9 589.57 266.56 591.89 272.27 595.2 278.34 599.6 284.76 605.41 291.24 612.32 298.04 620.21 305.14 629.12 312.28 638.55 319.69 648.13 327.33 657.74 335 666.7 342.89 674.53 350.97 681.18 359.05 685.94 367.31 688.48 375.72 689.05 384.14 687.18 392.51 683.06 400.83 677.3 409.17 669.83 417.46 661.07 425.72 651.69 434.02 641.83 442.32 631.9 450.62 622.46 459 613.6 467.43 605.55 475.92 598.68 484.53 592.86 493.25 588.08 502.08 584.59 511.06 581.98 520.18 580.09 529.42 579.13 538.82 578.52 548.32 578.04 557.89 577.96 567.54 577.64 577.18 576.89 586.72 576.1 596.19 574.65 605.43 572.45 614.31 569.95 622.88 566.61 630.91 562.46 638.23 557.93 644.99 552.63 650.86 546.61 655.69 540.28 659.75 533.33 662.66 525.87 664.32 518.2 665.17 510.12 664.79 501.72 663.21 493.21 660.99 484.46 657.77 475.55 653.68 466.6 649.38 457.54 644.57 448.43 639.43 439.3 634.69 430.14 630.04 420.97 625.68 411.8 622.26 402.83 619.49 394.07 617.44 385.28 616.51 376.68 616.28 368.24 616.66 359.76 617.98 351.41 619.7 343.18 621.64 334.87 624.13 326.64 626.53 318.48 628.67 310.21 630.88 301.98 632.54 293.78 633.53 285.47 634.21 277.18 634.04 268.94 632.95 260.61 631.36 252.34 628.8 244.19 625.3 236.03 621.26 228.04 616.33 220.3 610.6 212.67 604.4 205.38 597.5 198.51 590.02 191.91 582.2 185.82 573.92 180.34 565.29 175.22 556.45 170.76 547.37 167.01 538.12 163.65 528.78 160.99 519.35 159.03 509.88 157.35 500.4 156.28 490.93 155.76 481.52 155.31 472.11 155.25 462.78 155.52 453.55 155.58 444.33 155.8 435.21 156.11 426.22 156 417.24 155.88 408.37 155.74 399.65 155.12 390.92 154.52 382.52 153.99 374.46 153.14 366.38 152.52 358.63 152.21 351.2 151.84 343.75 151.96 336.61 152.63 329.77 153.51 322.89 155.07 316.3 157.33 309.99 159.97 303.6 163.36 297.46 167.46 291.56 171.97 285.53 177.14 279.7 182.93 274.03 189.02 268.19 195.62 262.47 202.64 256.84 209.8 250.98 217.28 245.17 224.99 239.39 232.7 233.33 240.55 227.28 248.49 221.22 256.31 214.9 264.19 208.57 272.08 202.28 279.82 195.77 287.57 189.35 295.35 183.06 302.96 176.69 310.63 170.55 318.37 164.74 325.96 159.01 333.67 153.74 341.51 149.02 349.26 144.59 357.18 140.84 365.3 137.85 373.36 135.31 381.66 133.61 390.21 132.83 398.73 132.54 407.53 133.17 416.61 134.71" stroke-dasharray="0 3" transform="rotate(12.12, 400, 400)" opacity="0.76"></path><path d="M420.33 145.38C429.09 147.3 437.86 149.94 446.61 153.2 455.35 156.66 464.07 160.59 472.69 164.89 481.29 169.16 489.76 173.66 498.04 178.32 506.21 182.75 514.13 187.25 521.68 191.76 529.05 195.93 535.96 200.09 542.33 204.21 551.12 209.84 564.67 220.62 569.21 225.91 572.44 230.97 575.09 241.74 575.06 247.64 575.12 253.73 576.68 267.5 579.29 275.24 582.38 280.53 586.39 286.18 591.36 292.15 597.57 298.15 604.69 304.47 612.59 311.1 621.31 317.74 630.38 324.67 639.46 331.86 648.47 339.06 656.8 346.5 664.04 354.17 670.16 361.83 674.55 369.71 676.9 377.78 677.47 385.86 675.83 393.95 672.12 402.03 666.91 410.12 660.09 418.23 652.01 426.35 643.3 434.51 634.02 442.7 624.55 450.93 615.4 459.23 606.63 467.61 598.48 476.06 591.3 484.61 584.99 493.27 579.59 502.02 575.33 510.89 571.9 519.86 569.18 528.91 567.38 538.07 566 547.27 564.87 556.46 564.24 565.68 563.53 574.82 562.59 583.78 561.74 592.61 560.42 601.14 558.52 609.25 556.46 617.03 553.71 624.22 550.25 630.7 546.53 636.63 542.09 641.68 536.98 645.75 531.61 649.12 525.63 651.4 519.11 652.56 512.4 652.99 505.23 652.33 497.68 650.59 490.02 648.33 482.05 645.18 473.84 641.25 465.58 637.19 457.14 632.68 448.55 627.88 439.95 623.46 431.24 619.11 422.44 615.01 413.63 611.75 404.95 609.07 396.4 607.01 387.84 605.95 379.4 605.51 371.06 605.62 362.69 606.6 354.41 607.95 346.21 609.52 337.94 611.64 329.72 613.71 321.56 615.59 313.32 617.62 305.1 619.19 296.93 620.21 288.68 621.02 280.47 621.1 272.34 620.39 264.17 619.27 256.1 617.29 248.18 614.46 240.31 611.16 232.66 607.03 225.29 602.14 218.09 596.83 211.26 590.82 204.88 584.23 198.78 577.31 193.21 569.9 188.24 562.09 183.63 554.07 179.67 545.75 176.38 537.21 173.45 528.56 171.17 519.76 169.54 510.88 168.15 501.95 167.31 492.99 166.98 484.04 166.67 475.09 166.71 466.17 167.04 457.32 167.15 448.49 167.39 439.72 167.71 431.07 167.6 422.42 167.48 413.87 167.33 405.45 166.7 397.03 166.09 388.92 165.53 381.13 164.65 373.32 163.98 365.82 163.57 358.61 163.1 351.38 163.06 344.43 163.53 337.76 164.17 331.04 165.44 324.57 167.37 318.35 169.64 312.04 172.61 305.95 176.28 300.05 180.33 294.03 185.04 288.17 190.36 282.44 196 276.54 202.16 270.73 208.78 264.99 215.58 259.04 222.74 253.12 230.16 247.23 237.64 241.09 245.31 234.96 253.11 228.85 260.86 222.5 268.69 216.18 276.57 209.92 284.34 203.49 292.14 197.18 299.96 191.03 307.66 184.84 315.4 178.92 323.18 173.33 330.85 167.87 338.6 162.86 346.45 158.4 354.21 154.23 362.11 150.73 370.15 147.96 378.14 145.62 386.31 144.08 394.67 143.41 403.01 143.2 411.56 143.86 420.32 145.38" stroke-dasharray="2 9" transform="rotate(16.16, 400, 400)" opacity="0.74"></path><path d="M422.26 156.06C430.66 157.92 438.99 160.48 447.23 163.63 455.46 166.97 463.58 170.77 471.55 174.94 479.47 179.1 487.18 183.51 494.64 188.08 501.99 192.47 509.01 196.95 515.62 201.45 522.06 205.67 528.01 209.88 533.42 214.08 540.83 219.87 551.98 230.98 555.62 236.41 559.58 246.96 562.17 264.01 563.31 270.44 564.88 274.78 566.97 279.43 569.7 284.4 573.48 289.35 578.07 294.63 583.5 300.22 589.98 305.82 597.2 311.73 605.03 317.94 613.49 324.15 622.15 330.65 630.71 337.42 639.13 344.2 646.84 351.23 653.49 358.51 659.12 365.79 663.15 373.31 665.32 381.05 665.9 388.8 664.46 396.6 661.13 404.44 656.44 412.28 650.25 420.19 642.85 428.13 634.8 436.11 626.12 444.15 617.15 452.25 608.36 460.41 599.79 468.66 591.65 476.98 584.29 485.38 577.63 493.87 571.73 502.44 566.83 511.09 562.67 519.8 559.19 528.55 556.58 537.35 554.43 546.14 552.6 554.87 551.34 563.55 550.12 572.09 548.82 580.4 547.73 588.53 546.33 596.31 544.51 603.63 542.66 610.6 540.26 616.97 537.28 622.62 532.24 629.89 518.81 639 510.54 640.57 504.68 640.67 498.35 639.77 491.6 637.92 484.75 635.65 477.53 632.59 470.02 628.86 462.45 625.04 454.63 620.82 446.6 616.35 438.55 612.24 430.32 608.19 421.93 604.33 413.54 601.25 405.19 598.64 396.91 596.58 388.62 595.43 380.39 594.8 372.21 594.66 364.02 595.33 355.87 596.32 347.76 597.54 339.61 599.29 331.5 601.03 323.41 602.64 315.29 604.44 307.19 605.88 299.15 606.87 291.07 607.74 283.05 607.98 275.14 607.55 267.24 606.81 259.47 605.3 251.9 603.04 244.42 600.39 237.19 596.98 230.29 592.85 223.58 588.35 217.26 583.19 211.42 577.44 205.86 571.39 200.84 564.83 196.41 557.85 192.31 550.66 188.83 543.12 186 535.33 183.48 527.41 181.56 519.29 180.24 511.04 179.12 502.73 178.49 494.34 178.31 485.92 178.12 477.48 178.25 469.03 178.62 460.62 178.76 452.21 179.01 443.84 179.31 435.55 179.21 427.27 179.07 419.07 178.91 410.96 178.28 402.86 177.66 395.04 177.09 387.5 176.19 379.95 175.48 372.68 175 365.67 174.44 358.64 174.27 351.85 174.55 345.32 174.98 338.72 175.98 332.35 177.58 326.19 179.49 319.94 182.06 313.87 185.29 307.96 188.88 301.93 193.11 296.02 197.93 290.23 203.09 284.27 208.77 278.38 214.92 272.55 221.29 266.52 228.04 260.52 235.1 254.55 242.27 248.37 249.66 242.21 257.23 236.08 264.8 229.76 272.48 223.49 280.24 217.31 287.94 211.01 295.7 204.84 303.48 198.88 311.18 192.91 318.92 187.22 326.69 181.89 334.38 176.7 342.13 171.97 349.93 167.79 357.67 163.89 365.5 160.64 373.43 158.09 381.32 155.94 389.33 154.57 397.46 154 405.59 153.87 413.85 154.56 422.25 156.05" stroke-dasharray="5 6" transform="rotate(20.200000000000003, 400, 400)" opacity="0.70"></path><path d="M422.23 166.73C430.23 168.55 438.1 171.01 445.8 174.04 453.49 177.26 461 180.93 468.29 184.96 475.53 188.99 482.51 193.28 489.17 197.75 495.74 202.08 501.93 206.51 507.69 210.99 513.3 215.22 518.42 219.47 523 223.72 529.29 229.64 538.66 241.07 541.76 246.64 544.19 251.93 547.19 262.8 548.31 268.53 550.08 274.29 555.97 286.91 560.79 293.85 565.14 298.55 570.2 303.53 575.96 308.81 582.6 314.07 589.83 319.64 597.5 325.48 605.64 331.32 613.85 337.45 621.88 343.85 629.69 350.25 636.8 356.91 642.9 363.83 648.06 370.75 651.74 377.93 653.73 385.36 654.31 392.78 653.06 400.29 650.1 407.87 645.91 415.45 640.3 423.12 633.56 430.85 626.16 438.6 618.11 446.44 609.68 454.35 601.32 462.3 593.02 470.34 585 478.45 577.59 486.6 570.71 494.84 564.45 503.12 559.04 511.44 554.27 519.79 550.12 528.13 546.77 536.47 543.88 544.76 541.36 552.92 539.42 561 537.62 568.88 535.85 576.48 534.37 583.87 532.72 590.88 530.8 597.39 527.82 606.34 519.51 620.15 514.01 624.66 507.78 627.45 492.58 627.67 483.74 625.22 477.61 622.96 471.1 620.02 464.25 616.49 457.35 612.92 450.14 609 442.67 604.85 435.18 601.04 427.45 597.27 419.5 593.66 411.55 590.74 403.58 588.23 395.62 586.18 387.66 584.94 379.7 584.15 371.76 583.79 363.81 584.17 355.86 584.84 347.94 585.72 340 587.11 332.08 588.52 324.19 589.85 316.29 591.4 308.42 592.67 300.61 593.56 292.81 594.42 285.1 594.76 277.52 594.52 269.99 594.06 262.63 592.93 255.5 591.14 248.49 589.03 241.77 586.24 235.4 582.79 229.24 579.01 223.5 574.62 218.22 569.66 213.23 564.42 208.77 558.68 204.87 552.51 201.29 546.13 198.29 539.38 195.88 532.34 193.75 525.17 192.17 517.76 191.13 510.18 190.24 502.53 189.79 494.75 189.74 486.9 189.66 479.01 189.84 471.08 190.24 463.15 190.39 455.2 190.63 447.27 190.92 439.38 190.81 431.49 190.67 423.65 190.49 415.87 189.87 408.1 189.25 400.57 188.66 393.29 187.77 386 187.03 378.94 186.5 372.12 185.86 365.27 185.58 358.64 185.7 352.21 185.93 345.74 186.68 339.44 187.99 333.32 189.55 327.12 191.74 321.06 194.53 315.14 197.66 309.1 201.4 303.16 205.72 297.3 210.35 291.3 215.52 285.36 221.15 279.46 227.04 273.4 233.32 267.36 239.93 261.36 246.7 255.18 253.73 249.03 260.95 242.93 268.24 236.69 275.67 230.53 283.21 224.47 290.74 218.33 298.34 212.37 305.99 206.62 313.6 200.9 321.25 195.48 328.92 190.42 336.54 185.53 344.21 181.1 351.9 177.19 359.55 173.57 367.26 170.57 375.02 168.24 382.75 166.29 390.56 165.06 398.43 164.6 406.29 164.55 414.23 165.25 422.22 166.73" stroke-dasharray="11 6" transform="rotate(24.24, 400, 400)" opacity="0.85"></path><path d="M420.26 177.4C427.82 179.16 435.19 181.53 442.35 184.44 449.49 187.53 456.4 191.05 463.04 194.93 469.63 198.83 475.91 202.98 481.85 207.34 487.7 211.58 493.16 215.94 498.18 220.37 505.31 226.73 516.91 239.15 521.33 245.18 525.1 250.84 530.43 261.99 532.3 267.58 534.29 273.02 538.9 284.46 542.13 290.56 545.08 294.62 548.52 298.92 552.51 303.45 557.32 307.95 562.73 312.7 568.71 317.72 575.41 322.72 582.54 327.99 589.97 333.53 597.74 339.06 605.48 344.86 612.95 350.93 620.18 356.99 626.7 363.32 632.27 369.91 636.96 376.49 640.32 383.34 642.15 390.46 642.73 397.57 641.65 404.78 639.03 412.07 635.29 419.37 630.26 426.77 624.15 434.23 617.4 441.72 609.98 449.3 602.12 456.94 594.23 464.62 586.29 472.37 578.49 480.17 571.14 488.01 564.17 495.89 557.68 503.78 551.9 511.69 546.65 519.58 541.93 527.42 537.93 535.23 534.38 542.93 531.2 550.46 528.58 557.88 526.18 565.06 523.87 571.92 521.92 578.55 519.9 584.77 517.73 590.5 514.56 598.28 506.58 609.95 501.55 613.55 495.97 615.63 482.41 615.03 474.47 612.49 468.98 610.28 463.09 607.48 456.84 604.16 450.55 600.84 443.92 597.2 437 593.37 430.06 589.85 422.83 586.36 415.36 582.99 407.88 580.23 400.33 577.81 392.74 575.79 385.16 574.48 377.54 573.56 369.91 573 362.28 573.11 354.63 573.48 346.99 574.05 339.35 575.1 331.72 576.18 324.13 577.22 316.55 578.5 309.02 579.57 301.57 580.34 294.16 581.13 286.86 581.49 279.71 581.36 272.65 581.09 265.79 580.25 259.18 578.83 252.72 577.16 246.57 574.89 240.78 572.02 235.21 568.88 230.06 565.17 225.38 560.93 220.97 556.44 217.06 551.46 213.69 546.05 210.6 540.45 208.05 534.47 206.05 528.17 204.28 521.74 203 515.05 202.21 508.15 201.52 501.17 201.23 494.03 201.28 486.77 201.27 479.47 201.49 472.09 201.89 464.66 202.05 457.22 202.28 449.75 202.54 442.28 202.41 434.81 202.26 427.35 202.07 419.92 201.46 412.49 200.85 405.26 200.26 398.24 199.38 391.21 198.62 384.38 198.06 377.74 197.37 371.07 197 364.59 196.98 358.27 197.04 351.91 197.57 345.69 198.6 339.62 199.84 333.47 201.66 327.43 204.04 321.5 206.71 315.47 209.97 309.52 213.77 303.63 217.88 297.62 222.5 291.65 227.59 285.73 232.94 279.67 238.7 273.64 244.81 267.65 251.09 261.53 257.66 255.45 264.47 249.44 271.37 243.33 278.45 237.31 285.66 231.42 292.91 225.51 300.25 219.77 307.66 214.27 315.06 208.84 322.52 203.71 330 198.95 337.45 194.37 344.94 190.23 352.45 186.62 359.93 183.28 367.44 180.53 374.96 178.41 382.48 176.66 390.02 175.58 397.57 175.22 405.12 175.23 412.68 175.96 420.25 177.4" stroke-dasharray="6 9" transform="rotate(28.28, 400, 400)" opacity="0.41"></path><path d="M416.5 188.07C423.61 189.78 430.48 192.05 437.1 194.83 443.7 197.78 450.03 201.15 456.06 204.86 462.05 208.61 467.71 212.62 473.01 216.84 478.24 220.97 483.09 225.24 487.52 229.6 493.82 235.91 504.12 248.38 508.14 254.49 511.71 260.27 517.32 271.67 519.68 277.37 522.34 282.9 528.69 294.36 532.87 300.4 536.4 304.39 540.37 308.59 544.83 313 549.97 317.34 555.61 321.93 561.69 326.74 568.34 331.53 575.3 336.56 582.43 341.84 589.78 347.11 597.01 352.63 603.93 358.4 610.57 364.17 616.53 370.19 621.58 376.47 625.85 382.75 628.9 389.28 630.57 396.08 631.14 402.87 630.22 409.77 627.91 416.76 624.61 423.75 620.11 430.84 614.61 438 608.49 445.18 601.7 452.43 594.44 459.75 587.06 467.08 579.54 474.47 572.05 481.89 564.86 489.32 557.93 496.77 551.35 504.19 545.33 511.61 539.74 518.97 534.59 526.24 530.06 533.45 525.93 540.51 522.16 547.36 518.92 554.08 515.91 560.53 513.06 566.63 509.36 575.24 502.05 589.6 498.07 595.07 488.93 601.43 471.53 602.32 464.31 599.75 459.33 597.62 453.96 594.97 448.24 591.87 442.49 588.8 436.4 585.45 430 581.92 423.58 578.68 416.86 575.45 409.87 572.31 402.87 569.72 395.77 567.4 388.61 565.41 381.45 564.05 374.23 563.02 366.98 562.29 359.74 562.16 352.48 562.26 345.21 562.54 337.97 563.26 330.73 564.04 323.54 564.78 316.39 565.79 309.29 566.63 302.29 567.24 295.37 567.91 288.57 568.24 281.94 568.16 275.44 568 269.14 567.36 263.12 566.21 254.5 563.97 239.33 556.5 232.96 551.32 227.44 545.36 219.21 531 216.51 522.79 215.06 517.08 214.05 511.09 213.47 504.86 212.96 498.55 212.78 492.05 212.91 485.39 212.95 478.7 213.19 471.88 213.58 464.97 213.73 458.05 213.93 451.06 214.16 444.04 214.02 437.01 213.85 429.95 213.65 422.88 213.05 415.81 212.45 408.89 211.88 402.14 211.01 395.39 210.26 388.78 209.67 382.33 208.95 375.86 208.51 369.53 208.38 363.33 208.29 357.09 208.62 350.97 209.4 344.95 210.36 338.88 211.83 332.89 213.82 326.98 216.06 320.99 218.84 315.05 222.14 309.17 225.72 303.19 229.79 297.25 234.32 291.36 239.1 285.35 244.3 279.39 249.85 273.47 255.59 267.45 261.64 261.5 267.94 255.63 274.37 249.7 281.01 243.88 287.8 238.21 294.65 232.55 301.63 227.09 308.69 221.87 315.78 216.74 322.93 211.93 330.12 207.49 337.31 203.23 344.53 199.4 351.75 196.08 358.98 193.02 366.21 190.52 373.43 188.62 380.65 187.05 387.86 186.12 395.04 185.85 402.23 185.93 409.39 186.67 416.49 188.07" stroke-dasharray="2 10" transform="rotate(32.32, 400, 400)" opacity="0.71"></path><path d="M411.3 198.75C417.93 200.38 424.3 202.56 430.4 205.2 436.49 208.01 442.28 211.22 447.77 214.76 453.22 218.35 458.34 222.2 463.12 226.26 470.02 232.34 481.9 244.89 486.85 251.22 491.4 257.32 498.87 269.33 501.98 275.26 505.12 280.94 511.46 292.35 515.04 298.16 519.48 303.9 530.68 315.93 537.67 322.31 543.03 326.55 548.78 331 554.86 335.66 561.36 340.28 568.07 345.12 574.84 350.18 581.73 355.22 588.45 360.5 594.81 366.01 600.88 371.51 606.28 377.25 610.85 383.23 614.71 389.21 617.47 395.44 618.99 401.91 619.54 408.38 618.78 414.96 616.76 421.61 613.86 428.27 609.87 435.02 604.94 441.83 599.44 448.64 593.28 455.53 586.62 462.45 579.79 469.38 572.74 476.34 565.63 483.31 558.71 490.27 551.93 497.22 545.38 504.11 539.25 510.97 533.45 517.75 528.01 524.39 523.08 530.96 518.49 537.35 514.22 543.5 510.43 549.51 506.88 555.22 503.51 560.58 499.05 568.07 490.6 580.32 486.29 584.83 477.06 589.76 460.49 589.56 453.81 587.01 449.21 584.98 444.28 582.5 439.01 579.62 433.72 576.8 428.1 573.73 422.18 570.49 416.25 567.53 410.02 564.55 403.51 561.64 397 559.2 390.38 556.99 383.68 555.05 376.98 553.65 370.22 552.53 363.42 551.66 356.63 551.32 349.82 551.17 343.01 551.18 336.24 551.61 329.48 552.08 322.78 552.55 316.13 553.28 309.56 553.88 303.11 554.3 296.74 554.82 290.51 555.06 284.48 554.97 275.75 554.59 259.84 551.55 252.84 548.79 246.53 545.32 236.32 535.85 232.5 529.94 229.44 523.42 225.7 508.51 224.91 500.27 224.53 494.62 224.45 488.74 224.63 482.69 224.7 476.59 224.93 470.34 225.3 463.96 225.42 457.57 225.59 451.07 225.78 444.5 225.63 437.93 225.44 431.28 225.23 424.59 224.65 417.9 224.07 411.31 223.51 404.85 222.67 398.38 221.93 392.02 221.34 385.78 220.6 379.52 220.11 373.36 219.9 367.3 219.69 361.21 219.86 355.2 220.42 349.28 221.12 343.31 222.28 337.4 223.9 331.55 225.74 325.63 228.08 319.77 230.89 313.95 233.94 308.05 237.47 302.19 241.44 296.38 245.64 290.48 250.24 284.63 255.21 278.85 260.37 273 265.84 267.22 271.58 261.55 277.47 255.85 283.58 250.28 289.86 244.88 296.24 239.5 302.76 234.34 309.38 229.45 316.05 224.65 322.8 220.17 329.6 216.05 336.42 212.12 343.27 208.61 350.13 205.58 357 202.8 363.88 200.55 370.72 198.86 377.57 197.47 384.4 196.67 391.17 196.5 397.94 196.63 404.66 197.38 411.29 198.75" stroke-dasharray="6 9" transform="rotate(36.36, 400, 400)" opacity="0.77"></path><path d="M405.11 209.42C411.26 210.99 417.14 213.05 422.76 215.56 428.36 218.22 433.68 221.26 438.69 224.62 448.65 231.48 457.35 239.26 464.73 247.6 472.03 255.52 478.11 263.74 483.1 272.1 488.39 279.77 493.11 287.61 497.64 295.6 503.33 303 509.64 310.76 516.92 318.92 526.1 326.72 536.59 335.15 548.14 344.24 560.95 353.16 573.78 362.89 585.58 373.45 591.09 378.71 595.97 384.18 600.07 389.88 603.54 395.57 606.03 401.49 607.41 407.64 607.95 413.78 607.31 420.01 605.56 426.31 603.03 432.61 599.52 438.98 595.14 445.4 584.89 458.24 572.52 471.25 559.18 484.18 546.21 497.04 533.67 509.67 522.09 521.74 512.14 533.44 503.26 544.24 495.28 553.72 488.63 562.37 482.25 569.29 475.75 574.11 469.81 577.77 463.17 579.17 455.62 578.24 448.14 576.43 439.52 572.72 429.73 567.42 424.82 564.84 419.62 562.05 414.14 559.09 408.64 556.39 402.88 553.66 396.85 550.97 390.82 548.69 384.68 546.59 378.46 544.7 372.26 543.29 365.99 542.09 359.69 541.1 347.15 540.51 334.57 540.43 322.23 540.53 310.14 541.66 298.47 542.23 287.56 541.87 277.16 541.59 267.78 539.85 259.74 536.56 252.44 532.82 246.65 527.41 242.53 520.47 239.05 513.07 237.07 504.3 236.5 494.42 235.91 484.28 236.17 473.25 237.03 461.57 237.12 455.71 237.25 449.71 237.4 443.6 237.23 437.48 237.03 431.26 236.81 424.96 236.25 418.66 235.69 412.42 235.15 406.26 234.35 400.1 233.64 394.01 233.05 387.99 231.48 375.93 230.93 364.11 231.64 352.57 232.72 340.87 235.52 329.32 240.04 317.98 245.39 306.41 252.48 294.98 261.02 283.84 270.3 272.56 280.78 261.67 292.11 251.45 303.85 241.42 316.17 232.37 328.77 224.66 341.54 217.66 354.44 212.37 367.24 209.13 373.66 207.91 380.05 207.25 386.36 207.16 392.69 207.34 398.95 208.09 405.1 209.42" stroke-dasharray="2 9" transform="rotate(40.400000000000006, 400, 400)" opacity="0.97"></path><path d="M398.46 220.09C409.81 223.28 420.16 228.2 429.41 234.46 438.61 240.96 446.7 248.38 453.67 256.39 460.67 264.09 466.72 272.15 471.99 280.39 477.67 288.07 483.05 295.93 488.45 303.94 494.96 311.43 502.1 319.22 510.11 327.35 519.68 335.13 530.24 343.43 541.51 352.3 553.63 360.98 565.52 370.37 576.24 380.47 585.8 390.5 592.63 401.34 595.83 412.95 596.13 424.56 592.38 436.44 585.22 448.41 576.13 460.39 564.94 472.42 552.64 484.27 540.41 496.01 528.27 507.41 516.74 518.16 506.44 528.52 496.98 537.94 488.32 546.04 480.84 553.4 473.71 559.12 466.66 562.93 460.21 565.78 453.33 566.64 445.82 565.44 438.46 563.61 430.2 560.12 421 555.27 411.79 550.71 401.59 545.58 390.46 540.29 379.33 536.45 367.86 533.19 356.3 530.62 344.84 529.67 333.4 529.12 322.26 528.74 311.38 529.34 300.99 529.5 291.4 528.93 282.27 528.56 274.16 526.98 267.34 524.07 261.13 520.9 256.3 516.25 252.99 510.22 250.13 503.84 248.58 496.16 248.25 487.39 247.77 478.4 248.02 468.47 248.79 457.82 248.63 447.1 248.52 435.77 248.39 423.97 247.01 412.17 245.76 400.47 244.81 388.98 243.27 377.45 242.62 366.06 243.05 354.87 243.72 343.56 245.91 332.36 249.63 321.35 254.03 310.18 260.03 299.19 267.4 288.52 275.46 277.81 284.69 267.54 294.8 257.98 305.34 248.67 316.51 240.35 328.02 233.33 339.74 226.99 351.64 222.26 363.46 219.43 375.36 217.59 387.1 217.77 398.45 220.09" stroke-dasharray="3 5" transform="rotate(44.44, 400, 400)" opacity="0.34"></path><path d="M391.95 230.77C402.38 233.79 411.92 238.39 420.52 244.26 429.09 250.38 436.75 257.41 443.52 265.05 450.39 272.47 456.57 280.29 462.22 288.34 468.35 295.95 474.37 303.76 480.54 311.71 487.71 319.23 495.48 327.01 503.96 335.07 513.67 342.82 524.09 350.99 534.9 359.62 546.23 368.09 557.13 377.14 566.79 386.79 575.33 396.38 581.4 406.64 584.25 417.55 584.61 428.46 581.41 439.53 575.16 450.61 567.17 461.66 557.17 472.66 545.97 483.39 534.61 493.98 523.06 504.13 511.81 513.57 501.45 522.64 491.7 530.74 482.59 537.56 474.47 543.74 466.73 548.41 459.18 551.35 452.22 553.53 445.04 553.95 437.47 552.61 430.11 550.8 422.09 547.58 413.37 543.17 404.66 539.08 395.16 534.45 384.91 529.62 374.66 526.03 364.2 522.86 353.73 520.21 343.36 518.95 333.1 518 323.21 517.19 313.56 517.3 304.46 517.05 296.16 516.22 288.27 515.67 281.37 514.13 275.66 511.49 270.44 508.71 266.48 504.66 263.84 499.37 261.5 493.84 260.28 487.11 260.1 479.33 259.7 471.37 259.9 462.47 260.54 452.8 260.32 443.06 260.14 432.65 259.98 421.67 258.66 410.69 257.49 399.69 256.61 388.79 255.13 377.86 254.42 366.98 254.65 356.24 254.99 345.42 256.65 334.68 259.66 324.13 263.2 313.49 268.19 303.05 274.45 292.97 281.3 282.92 289.29 273.35 298.16 264.51 307.44 255.97 317.39 248.39 327.74 242.07 338.31 236.39 349.1 232.21 359.89 229.78 370.77 228.23 381.53 228.52 391.95 230.77" stroke-dasharray="10 9" transform="rotate(48.48, 400, 400)" opacity="0.21"></path><path d="M386.15 241.44C395.7 244.28 404.52 248.58 412.57 254.05 420.63 259.77 427.99 266.37 434.68 273.58 441.52 280.67 447.9 288.19 453.97 295.97 460.51 303.42 467.09 311.09 473.87 318.92 481.51 326.39 489.67 334.09 498.37 342.02 508 349.69 518.07 357.71 528.26 366.09 538.72 374.32 548.6 383.03 557.22 392.21 564.8 401.34 570.15 411.01 572.67 421.2 573.08 431.38 570.38 441.61 564.98 451.75 558.04 461.85 549.19 471.8 539.11 481.37 528.73 490.82 517.93 499.75 507.19 507.92 497.03 515.76 487.24 522.64 477.95 528.31 469.44 533.45 461.26 537.21 453.35 539.42 445.95 541.05 438.5 541.16 430.86 539.75 423.44 538.02 415.59 535.08 407.26 531.12 398.97 527.48 390.1 523.34 380.68 518.95 371.26 515.61 361.78 512.55 352.4 509.86 343.1 508.36 334.01 507.08 325.36 505.89 316.91 505.53 309.04 504.89 301.97 503.78 292.34 502.21 278.77 494.59 275.06 488.1 273.13 483.25 272.16 477.33 272.07 470.41 271.68 463.36 271.8 455.4 272.31 446.65 272 437.85 271.76 428.33 271.56 418.19 270.32 408.05 269.25 397.79 268.44 387.54 267.05 377.28 266.33 367 266.41 356.81 266.5 346.59 267.73 336.43 270.13 326.45 272.93 316.45 277 306.67 282.24 297.27 287.96 287.96 294.75 279.16 302.4 271.09 310.41 263.35 319.12 256.53 328.28 250.9 337.64 245.87 347.3 242.22 357.03 240.17 366.83 238.89 376.6 239.28 386.15 241.44" stroke-dasharray="9 5" transform="rotate(52.52, 400, 400)" opacity="0.73"></path><path d="M381.56 252.11C390.27 254.77 398.45 258.75 406.05 263.8 413.68 269.11 420.81 275.25 427.48 282.01 434.32 288.7 440.9 295.85 447.33 303.28 454.19 310.48 461.17 317.92 468.37 325.53 476.26 332.86 484.56 340.41 493.22 348.15 502.54 355.67 512.09 363.48 521.54 371.56 531.07 379.52 539.91 387.85 547.53 396.54 554.2 405.19 558.88 414.25 561.08 423.69 561.53 433.13 559.28 442.5 554.66 451.67 548.71 460.82 540.98 469.7 532.04 478.15 522.7 486.48 512.79 494.23 502.73 501.22 493.01 507.93 483.46 513.7 474.24 518.36 465.59 522.58 457.21 525.57 449.1 527.21 441.43 528.41 433.8 528.29 426.13 526.89 418.67 525.29 410.98 522.65 403.01 519.13 395.08 515.92 386.78 512.24 378.15 508.27 369.51 505.19 360.95 502.27 352.62 499.59 344.34 497.9 336.37 496.34 328.89 494.83 321.56 494.06 314.84 493.06 308.9 491.67 300.79 489.8 289.59 482.48 286.6 476.61 284.99 472.3 284.17 467.04 284.09 460.87 283.68 454.61 283.7 447.5 284.06 439.61 283.67 431.67 283.37 423.02 283.14 413.72 281.99 404.42 281.02 394.93 280.3 385.4 279.02 375.87 278.33 366.28 278.32 356.75 278.24 347.21 279.14 337.73 281.03 328.44 283.19 319.18 286.47 310.15 290.79 301.51 295.48 293.02 301.16 285.04 307.66 277.77 314.46 270.84 321.96 264.79 329.94 259.85 338.1 255.44 346.62 252.3 355.3 250.61 364.04 249.58 372.85 250.05 381.56 252.11" stroke-dasharray="10 2" transform="rotate(56.56, 400, 400)" opacity="0.17"></path><path d="M378.59 262.79C386.52 265.25 394.1 268.9 401.29 273.54 408.52 278.41 415.45 284.07 422.1 290.33 428.92 296.58 435.63 303.29 442.29 310.31 449.32 317.16 456.51 324.29 463.89 331.59 471.79 338.68 479.99 345.98 488.38 353.44 497.21 360.73 506.08 368.25 514.7 375.98 523.25 383.61 531.07 391.52 537.72 399.67 543.53 407.8 547.59 416.22 549.5 424.88 549.97 433.55 548.12 442.05 544.22 450.27 539.18 458.46 532.53 466.31 524.71 473.68 516.45 480.94 507.52 487.6 498.3 493.51 489.22 499.18 480.14 503.98 471.23 507.76 462.71 511.2 454.39 513.56 446.29 514.75 438.54 515.63 430.87 515.39 423.28 514.05 415.86 512.61 408.35 510.29 400.75 507.2 393.19 504.4 385.43 501.16 377.53 497.6 369.62 494.78 361.94 492.01 354.58 489.37 347.25 487.55 340.31 485.79 333.9 484.03 324.74 482.24 310.13 477.74 304.97 474.39 300.87 470.51 296.65 458.84 296.17 450.95 295.7 445.37 295.6 439 295.8 431.91 295.34 424.78 294.98 416.96 294.72 408.5 293.66 400.04 292.79 391.36 292.17 382.6 291.04 373.86 290.41 365.03 290.37 356.25 290.19 347.48 290.83 338.78 292.33 330.26 293.98 321.81 296.6 313.61 300.12 305.81 303.91 298.17 308.59 291.04 314.04 284.6 319.72 278.48 326.08 273.19 332.96 268.91 339.97 265.12 347.39 262.46 355.06 261.09 362.78 260.3 370.66 260.83 378.59 262.79" stroke-dasharray="2 4" transform="rotate(60.599999999999994, 400, 400)" opacity="0.51"></path><path d="M377.5 273.46C384.68 275.73 391.7 279.05 398.5 283.26 405.33 287.68 412.03 292.85 418.59 298.57 425.31 304.33 432.02 310.54 438.75 317.07 445.77 323.51 452.94 330.22 460.26 337.11 467.94 343.87 475.81 350.82 483.73 357.9 491.91 364.87 499.98 372.02 507.69 379.32 515.24 386.54 522.07 393.97 527.79 401.55 532.79 409.11 536.27 416.86 537.92 424.73 538.4 432.61 536.91 440.24 533.66 447.52 529.45 454.78 523.82 461.64 517.09 467.99 509.92 474.25 502.03 479.91 493.76 484.86 485.49 489.62 477.08 493.57 468.71 496.62 460.58 499.42 452.54 501.28 444.68 502.13 437.07 502.78 429.55 502.48 422.16 501.26 414.92 500.01 407.68 498 400.47 495.33 393.31 492.92 386.1 490.09 378.89 486.93 371.67 484.37 364.79 481.77 358.31 479.21 348.84 476.37 332.53 471.28 325.98 468.62 316.38 462.48 308.8 448.05 308.24 440.93 307.7 435.92 307.47 430.22 307.52 423.85 306.99 417.47 306.58 410.44 306.3 402.81 305.34 395.19 304.58 387.34 304.06 379.4 303.08 371.48 302.54 363.48 302.5 355.52 302.3 347.59 302.78 339.73 303.98 332.07 305.24 324.49 307.31 317.17 310.18 310.25 313.21 303.49 317.04 297.23 321.57 291.63 326.26 286.31 331.59 281.75 337.45 278.12 343.41 274.9 349.81 272.69 356.54 271.63 363.29 271.04 370.31 271.63 377.5 273.46" stroke-dasharray="3 4" transform="rotate(64.64, 400, 400)" opacity="0.20"></path><path d="M378.38 284.13C384.86 286.2 391.31 289.19 397.69 292.96 404.1 296.93 410.5 301.57 416.86 306.74 423.35 311.97 429.9 317.63 436.5 323.61 443.31 329.55 450.25 335.76 457.27 342.16 464.52 348.48 471.86 354.98 479.13 361.6 486.52 368.14 493.71 374.83 500.47 381.61 507.03 388.35 512.89 395.22 517.74 402.17 521.99 409.11 524.94 416.15 526.34 423.23 526.82 430.3 525.64 437.06 522.97 443.44 519.53 449.8 514.84 455.73 509.16 461.15 503.06 466.5 496.25 471.27 488.99 475.37 481.65 479.34 474.07 482.58 466.43 485.03 458.89 487.31 451.37 488.78 443.96 489.4 436.71 489.9 429.54 489.61 422.51 488.54 415.59 487.49 408.74 485.79 401.99 483.51 395.29 481.48 388.63 479.03 382.09 476.25 375.55 473.95 369.41 471.55 363.72 469.11 355.43 466.22 341.45 460.66 335.92 457.73 327.73 451.29 320.98 437.52 320.3 431.05 319.49 423.99 318.4 406.91 317.88 396.98 317.01 390.17 316.37 383.17 315.96 376.09 315.14 369.02 314.71 361.88 314.72 354.8 314.53 347.76 314.92 340.8 315.92 334.04 316.9 327.37 318.57 320.96 320.91 314.94 323.33 309.08 326.45 303.68 330.2 298.89 336.27 292.43 351.21 283.9 359.81 282.22 365.68 281.81 371.9 282.43 378.38 284.13" stroke-dasharray="6 0" transform="rotate(68.68, 400, 400)" opacity="0.89"></path><path d="M381.16 294.81C392.76 298.77 404.72 305.78 416.69 314.86 429.02 324.22 441.83 335.13 454.69 346.8 468.07 358.3 481.28 370.52 493.01 382.93 503.9 395.24 511.72 407.92 514.76 420.45 514.94 432.97 509.86 444.09 500.9 453.3 490.43 462.29 477.67 469.06 464.13 473.11 450.68 476.76 437.05 477.7 423.97 475.91 411.17 474.31 398.64 470.74 386.87 465.58 375.1 461.91 365.06 457.65 357.01 453.11 348.97 449.97 342.97 445.91 339.18 440.75 335.14 436.15 332.89 429.78 332.29 421.6 330.53 413.46 329.58 403.29 329.46 391.3 327.48 379.31 326.59 366.71 326.97 354.32 326.57 342.1 328.3 330.34 332.18 319.96 336.15 310.15 342.49 302.2 350.84 297.01 359.31 292.92 369.55 291.99 381.16 294.81" stroke-dasharray="10 4" transform="rotate(72.72, 400, 400)" opacity="0.71"></path><path d="M385.59 305.48C395.85 308.95 406.71 315.05 417.74 322.95 429 331.13 440.7 340.76 452.27 351.1 464.05 361.39 475.43 372.35 485.27 383.41 494.32 394.43 500.72 405.66 503.18 416.56 503.49 427.45 499.51 436.93 492.28 444.62 483.8 452.16 473.15 457.72 461.57 460.98 449.87 464.03 437.78 464.83 426.08 463.39 414.52 462.19 403.25 459.29 392.8 454.91 382.35 451.65 373.59 447.67 366.65 443.29 359.65 439.96 354.42 435.79 351.03 430.73 347.32 426.15 345.07 420.17 344.2 412.78 342.33 405.46 341.26 396.51 341.04 386.1 339.35 375.69 338.72 364.87 339.22 354.32 339.01 343.92 340.55 334.03 343.87 325.42 347.12 317.29 352.38 310.81 359.43 306.71 366.52 303.47 375.32 302.9 385.59 305.48" stroke-dasharray="6 1" transform="rotate(76.76, 400, 400)" opacity="0.65"></path><path d="M391.28 316.15C400.2 319.14 409.79 324.31 419.6 331.02 429.53 337.99 439.78 346.24 449.77 355.15 459.78 364.09 469.24 373.62 477.24 383.21 484.55 392.8 489.66 402.49 491.6 411.76 491.99 421.04 488.97 428.97 483.3 435.31 476.66 441.56 468.08 446.11 458.53 448.77 448.76 451.33 438.46 452.09 428.35 451.01 418.3 450.16 408.46 447.87 399.36 444.23 390.26 441.41 382.66 437.79 376.66 433.69 370.56 430.36 365.93 426.25 362.81 421.41 359.34 416.96 357.07 411.42 355.97 404.82 354.06 398.3 352.91 390.52 352.62 381.66 351.21 372.8 350.82 363.72 351.45 354.98 351.45 346.37 352.9 338.3 355.81 331.38 358.55 324.83 362.96 319.71 368.92 316.6 374.85 314.11 382.35 313.84 391.28 316.15" stroke-dasharray="4 7" transform="rotate(80.80000000000001, 400, 400)" opacity="0.68"></path><path d="M397.74 326.83C405.29 329.32 413.45 333.57 421.79 339.09 430.18 344.83 438.75 351.66 446.97 359.06 455.1 366.53 462.65 374.51 468.9 382.54 474.6 390.58 478.54 398.66 480.02 406.33 480.45 413.99 478.24 420.48 473.97 425.62 468.98 430.71 462.35 434.41 454.81 436.59 447.03 438.76 438.66 439.49 430.3 438.76 421.94 438.24 413.68 436.5 405.98 433.56 398.27 431.18 391.8 428.01 386.62 424.31 379.29 419.21 369.98 406.13 367.58 397.86 365.7 392.16 364.53 385.56 364.21 378.22 363.07 370.87 362.89 363.49 363.6 356.51 364.53 346.43 372.06 330.88 378.93 326.68 383.89 324.86 390.18 324.81 397.74 326.83" stroke-dasharray="4 6" transform="rotate(84.84, 400, 400)" opacity="0.29"></path><path d="M404.4 337.5C416.67 341.76 430.84 351.29 443.64 362.93 456.02 374.85 465.66 388.38 468.44 400.55 468.6 412.71 461.32 421.01 450.26 424.58 438.43 428.24 424.57 427.75 412.07 422.89 399.56 419.43 390.52 412.96 385.38 404.94 379.37 397.67 375.92 387.68 375.79 375.97 373.54 364.25 374.97 353.08 379.68 345.05 383.73 337.7 392.11 334.47 404.4 337.5" stroke-dasharray="6 8" transform="rotate(88.88, 400, 400)" opacity="0.44"></path><path d="M410.67 348.17C420.01 351.32 430.47 358.3 439.61 366.87 448.41 375.65 455.05 385.69 456.86 394.73 457.22 403.77 452.41 410 444.76 412.83 436.6 415.77 426.58 415.69 417.1 412.21 407.61 409.52 400.34 404.27 395.83 397.78 390.77 391.72 387.68 383.79 387.37 375.02 385.82 366.25 387.29 358.29 391.22 352.84 394.7 347.77 401.32 345.73 410.67 348.17" stroke-dasharray="2 5" transform="rotate(92.92, 400, 400)" opacity="0.70"></path><path d="M416 358.85C428.62 363.26 442.62 377.25 445.27 389.21 445.43 401.16 433.38 406.25 420.63 401.54 407.87 398.19 399.09 387.14 398.95 375.44 396.56 363.73 403.38 355.71 416 358.85" stroke-dasharray="8 10" transform="rotate(96.96, 400, 400)" opacity="0.81"></path></g></svg>