<svg xmlns="http://www.w3.org/2000/svg" version="1.1" xmlns:xlink="http://www.w3.org/1999/xlink" xmlns:svgjs="http://svgjs.dev/svgjs" viewBox="0 0 800 800" opacity="0.29"><defs><linearGradient x1="50%" y1="0%" x2="50%" y2="100%" id="ssscribble-grad"><stop stop-color="#7f5af0" stop-opacity="1" offset="0%"></stop><stop stop-color="#6246ea" stop-opacity="1" offset="100%"></stop></linearGradient></defs><g fill="none" stroke-width="1" stroke="url(#ssscribble-grad)" stroke-linecap="round"><path d="M1000.37 665.82C1168.85 695.16 1387.26 722.39 1513.64 747.08 1471.08 771.2 1286.39 791.7 1074.06 807.51 955.81 821.35 994.84 828.87 1157.37 828.94 1349.88 825.88 1459.34 814.49 1429.45 794.71 1275.25 773.02 1072.63 744.9 914.03 712.68 861.67 684.56 928.31 658.58 1070.32 639.53 1226.24 634.71 1323.56 644.82 1326.79 674.09 1235.48 724.04 1080.96 794.77 912.75 884.44 770.53 985.23 690.7 1092.45 679.93 1196.28 731.75 1284.17 820.34 1348.41 916.53 1379.77 1004.98 1374.97 1059.65 1333.23 1074.47 1259.56 1052.09 1169.17 996.03 1073.44 918.65 990.12 823.68 938.81 726.33 928.7 634.92 966.24 544.49 1048.35 466.74 1162.76 401.96 1290.11 341.61 1406.22 292.03 1489.09 250.95 1520.61 211.49 1494.74 177.57 1414.59 148.23 1296.09 118.89 1167.47 94.82 1056.59 77.14 986.12 61.07 969.8 54.33 1007.99 59.35 1089.68 68.79 1199.38 92.2 1311.12 129.39 1402.58 167.58 1459.42 212.81 1468.67 256.94 1430.15 283.47 1350.69 289.95 1243.16 264.16 1124.55 201.16 1009.36 99.71 913.71 -33.94 847.19 -175.35 814.56 -307.61 815.81 -401.41 845.24 -432.63 898.58 -393.08 963.15 -289.31 1028.74 -159.56 1091.69 -41.66 1140.16 14.99 1169.94 -22.88 1181.94 -152.86 1172.6 -339.33 1144.52 -511.9 1100.18 -606.96 1043.1 -580.78 978.05 -448.34 905.32 -269.64 831.22 -136.94 759.01 -128.55 685.96 -257.12 618.04 -466.19 556.28 -645.28 496.24 -698.31 442.56 -591.39 394.92 -390.38 348.75 -214.33 307.56 -177.57 270.79 -309.76 234.5 -531.13 201.74 -699.62 172.4 -702.72 143.06 -539.48 117.83 -318.8 96.97 -178.05 76.59 -201.02 61.46 -364.42 52.3 -568.33 44.61 -686.18 43.93 -652.37 50.74 -486.02 59.26 -276.9 75.07 -130.42 97.28 -111.55 118.64 -218.9 143.16 -387.78 167.71 -538.28 184.59 -594.48 194.91 -535.02 194.04 -382.79 176.9 -197.76 142.57 -44.35 88.6 35.22 16.84 23.38 -71.9 -59.82 -173.3 -184.58 -277.35 -301.45 -378.54 -376.17 -466.54 -394.37 -530.62 -349.06 -564.54 -255.62 -562.47 -128.35 -526.51 5.63 -459.29 126.93 -370.27 229.98 -277.84 301.63 -194.21 343.83 -136.25 360.3 -119.23 357.45 -147.57 344.72 -220.95 321 -328.97 299.04 -454.71 284.05 -575.74 267.61 -668.77 261.87 -715.61 267.82 -705.1 274.08 -640.45 291.81 -532.56 321.14 -403.94 350.49 -285.44 390.74 -202.3 441.62 -170.61 492.81 -196.3 554.86 -270.53 626.63 -375.32 696.96 -491.34 773.27 -591.75 850.23 -657.31 916.19 -678.3 971.16 -649.1 1005.54 -576.29 1014.2 -471.47 992.15 -351.84 937.28 -235.27 864.16 -135.42 776.94 -65.25 694.88 -29.89 646.64 -30.69 644.99 -62.26 705.15 -115.5 821.84 -184.68 979 -255.27 1142.22 -317.61 1263.89 -368.83 1312.37 -399.27 1267.46 -407.25 1148.71 -394.55 996.35 -361 874.65 -310.96 845.71 -246.69 930.32 -173.94 1106.98 -97.65 1302.04 -17.26 1433.33 60.43 1435.99 132.97 1311.04 203.6 1121.03 267.1 971.21 323.4 953.92 376.56 1085.75 423.39 1300.97 464.89 1475.72 504.41 1507.38 540.23 1372.47 573.25 1157.6 605.71 997.3 636.47 1000.34 665.81Q1000.37 665.82 1000.37 665.82" opacity="0.49"></path><path d="M966.37 590.11C1126.09 618.28 1337.19 641.49 1472.4 659.62 1455.55 677.38 1296.47 689.42 1087.48 695.31 939.92 700.19 929.18 698.32 1050.35 689.62 1237.25 680.14 1386.93 664.54 1425.92 644.02 1336.96 625.53 1160.36 605.47 973.69 586.92 847.55 576.63 827.13 573.73 906.08 582.25 1048.55 606.03 1190.05 645.93 1277.88 703.71 1285.68 776.89 1208.71 864.81 1073.9 963.23 912.75 1062.86 768.53 1159.01 668.64 1242.41 624.22 1303.54 636.2 1336.9 688.75 1337.06 770.26 1305.64 854.28 1244.36 923.91 1160.96 976.35 1071.58 998.32 986.68 991.82 921.69 961.65 891.9 912.01 902.88 851.56 957.14 780.39 1048.6 709.04 1164.43 642.64 1286.11 574.37 1392.12 514.88 1463.79 465.57 1486.34 416.38 1456.01 377.48 1376.39 349.32 1262.09 321.15 1138.45 304.38 1030.2 298.71 957.81 293.16 934.32 298.58 961.54 313.74 1031.33 327.02 1131.5 346.19 1239.62 366.26 1335.43 375.6 1405.09 375.22 1434.04 356.58 1418.85 314.26 1362.82 244.7 1274.09 146.01 1166.26 30.13 1051.73 -98.77 945.96 -223.7 860.04 -319.66 800.4 -373.56 771.37 -369.45 771.27 -309.86 798.22 -204.31 843.69 -80.08 899.18 17.8 961.52 59.62 1018.99 18.56 1065.73 -102.52 1101.98 -275.39 1120.95 -447.18 1122.64 -555.46 1109.49 -562.34 1081.25 -461.32 1041.3 -299.78 991.02 -146.13 934.32 -77.81 874.67 -137.45 810.68 -305.47 747.75 -508.26 687.89 -645.33 627.29 -648.04 571.39 -511.35 520.89 -313.24 470.73 -162.44 426.03 -151.16 386.93 -291.94 348.03 -505.9 314.4 -665.62 286.23 -672.21 258.07 -522.62 236.03 -309.8 220.06 -156.47 204.3 -147.98 194.93 -280.6 191.98 -478.41 189.36 -626.81 193.08 -647.88 202.57 -532.05 211.33 -337.31 224.24 -156.93 239.42 -67.55 250.25 -102.24 259.35 -232.12 263.39 -397.94 257.1 -520.66 240.45 -551.46 210.19 -479.91 165.09 -331.74 104.2 -159.03 27.65 -9.09 -59.38 74.96 -155.52 81.83 -254.78 18.37 -347.18 -85.48 -427.82 -194.65 -488.04 -287.08 -521.2 -334.41 -523.54 -330.89 -493.24 -279.85 -436.65 -191.75 -358.18 -84.05 -268.77 35.76 -186.07 148.04 -120.28 244.08 -84.89 326.16 -90.34 386.63 -137.62 428.91 -223.17 457.24 -334.86 474.66 -456.43 487.04 -567.47 493.37 -648.14 501.2 -683.66 514.03 -665.77 525.62 -598.96 544.88 -493.58 573.04 -369.94 601.21 -255.64 637.61 -173.14 680.89 -137.23 722.91 -154.19 769.14 -217.56 815.93 -312.69 856.67 -423.5 891.43 -525.89 914.21 -601.47 923.05 -639.84 912.61 -632.49 879.35 -582.06 832.13 -496.42 767.45 -388.57 693.88 -274.07 632.42 -165.55 589.21 -76.97 581.57 -16.21 621.44 12.95 710.68 10.96 843.4 -16.9 992.88 -67.05 1135.42 -128.03 1235.81 -190.75 1265.87 -252.25 1217 -301.5 1100.32 -334.38 960.87 -351.86 844.06 -349.84 801.81 -330.2 861.92 -295.31 1011.91 -247.52 1202.85 -190.98 1357.88 -126.18 1415.54 -58.52 1346.84 8.77 1187.11 78.1 1010.71 143.73 910.75 204.31 947.67 264.11 1109.5 318.16 1318.19 366.4 1461.7 413.63 1461.54 455.65 1313.83 492.75 1106.58 529.48 959.81 561.94 966.34 590.1Q966.37 590.11 966.37 590.11" opacity="0.91"></path><path d="M932.37 458.65C1083.43 485.65 1286.58 506.38 1428.58 521 1435.73 535.55 1304.08 543.88 1105.18 546.24 937.11 548.68 880.67 545.55 954.03 537.7 1117.97 531.27 1287.41 521.95 1383.66 511.72 1366.71 506.38 1242.42 503.87 1063.64 507.23 894.15 520.56 795.1 544.17 790.94 580.66 875.09 630.28 1007.3 694.02 1137.16 771.32 1227.33 856.9 1245.59 949.67 1191.09 1044.07 1077.03 1131.1 933.31 1206.6 791.59 1262.92 671.44 1294.27 594.59 1297.26 563.89 1270.06 576.67 1218.15 620.88 1144.86 680.72 1059.4 751.34 977.52 813.5 908.08 859.58 863.71 893.35 855.45 906.13 885.75 900.92 953.93 883.05 1051.8 853.51 1166.6 817.69 1281.06 776.12 1376.42 734.27 1437.08 695.61 1451.21 655.69 1416.95 621.58 1338.13 594.58 1228.09 567.59 1109.46 548.36 1004.07 535.7 930.29 521.79 900.38 511.83 917.19 502.49 975.04 487.4 1064.64 466.94 1167.01 435.84 1264.12 392.08 1343.18 331.36 1388.89 250.81 1395.43 157.94 1363.31 50.17 1296.36 -64.76 1204.65 -168.92 1098.15 -256.15 990.52 -310.54 893.1 -321.45 812.99 -284.77 757.55 -203.24 728.42 -100.14 725.76 6.51 745.37 85.18 781.18 104.31 830.88 52.36 884.46 -69.68 935.63 -231.41 984.3 -393.68 1021.99 -505.94 1046.61 -529.89 1060.51 -456.99 1060.11 -311.58 1047 -156.87 1023.58 -54.58 990.65 -57.42 951.08 -173.45 905.26 -360.47 856.55 -539.64 807.37 -628.23 755.56 -584.69 705.68 -427.03 659.14 -238.55 611.88 -114.85 568.96 -127.33 531.09 -274.68 493.12 -480.56 460.43 -631.62 433.43 -641.42 406.44 -505.29 385.78 -301.8 371.17 -139.29 356.47 -101.85 347.58 -201.31 343.93 -467.84 339.5 -481.29 342.87 -210.99 342.3 -68.37 335.09 -28.11 322.41 -94.45 301.51 -235.67 270.3 -386.81 227.69 -488.79 172.18 -508.35 105.97 -436.46 28.1 -299.84 -59.17 -134.6 -148.97 11.31 -239.62 106.08 -324.7 136.08 -395.89 103.12 -449.2 27.39 -478.42 -73.77 -481.17 -168.54 -455.79 -237.36 -403.8 -274.35 -334.48 -269.85 -253.01 -229.78 -170.58 -159.59 -102.95 -71.31 -57.99 23.19 -45.65 123.45 -71.96 215.59 -135.24 295.63 -229.52 369.62 -341.87 430.05 -457.12 478.92 -557.15 522.56 -625.43 558.56 -650.2 589.73 -625.64 619.33 -557.22 647.08 -454.57 674.08 -335.94 701.07 -225.89 726.66 -144.33 749.64 -104.71 771.05 -113.49 786.86 -166.19 794.13 -251.13 796.17 -355.17 785.75 -457.08 760.74 -539.73 729.68 -592.68 685.48 -605.41 632 -577.38 584.27 -513.23 541.59 -421.79 515.72 -315.83 519.95 -206.3 558.47 -106.84 637.04 -26.83 747.46 28.47 882.4 55.54 1022.19 56.07 1136.56 31.62 1206.61 -10.17 1212 -61.83 1152.63 -120.85 1040.41 -176.55 907.05 -223.51 802.28 -262.19 760.43 -285.76 808.07 -293.77 938.15 -288.66 1115.44 -269.24 1280.74 -238.26 1371.18 -197.29 1352.95 -149.17 1230.14 -97.05 1060.18 -40.04 916.62 17.21 872.55 72.61 957.34 129.44 1137.6 182.57 1330.86 231.04 1440.77 279.59 1411.32 323.05 1254.18 361.08 1056.03 399.04 922.6 431.65 932.34 458.64Q932.37 458.65 932.37 458.65" opacity="0.28"></path><path d="M898.37 309.99C1040.87 335.81 1235.49 355.86 1382.3 370.47 1411.37 385.25 1308.12 394.99 1125.2 400.37 945.82 406.72 850.35 409.88 873.68 411.2 1000.83 415.44 1168.95 420.19 1304.22 427.57 1354.59 441.08 1297.84 460.49 1158.64 488.09 983.55 524.92 833.04 572.32 749.91 631.22 751.83 698.87 828.68 776.3 946.98 861.17 1073.49 946.93 1165.31 1032.24 1200.25 1111.37 1173 1177 1089.64 1225.73 971.28 1252.17 835.09 1254.37 708.28 1230.73 607.01 1182.39 536.5 1117.49 503.03 1040.08 500.68 959.77 525.79 890.8 566.09 840.13 611.08 817.38 661.88 829.65 704.54 876.85 735.37 955.84 761.32 1057.18 773.8 1168.67 774.41 1274.61 770.5 1358.96 758 1408.91 739.43 1415.22 719.45 1377.55 696.03 1299.82 670.21 1194.09 644.4 1080.49 616.79 978.19 586.47 903.56 554.76 867.96 517.7 875.02 472.92 921.08 423.61 999.37 363.31 1094.13 290.51 1189.71 212.84 1274.66 124.32 1333.74 28.78 1359.53 -60.94 1350.5 -144.88 1306.8 -212.38 1235.09 -252.43 1142.86 -260.11 1041.18 -229.4 940.64 -167.92 848.23 -79.55 772.89 19.69 718.7 101.11 687.29 149.02 678.42 142.43 688.69 73.65 716.73 -50.38 755.33 -207.39 798.8 -356.17 846.9 -461.78 891.11 -490.57 928.02 -434.33 959.78 -308.84 980.54 -156.78 990.15 -40.62 991.73 -4.9 983.02 -74.2 965.83 -228.39 942.26 -413.32 912.93 -555.04 879.98 -592.95 843.49 -509.81 805.87 -340.39 768.77 -167.44 730.27 -71.78 693.8 -105.97 660.39 -257.88 626.67 -455.11 596.65 -597.62 570.83 -610.33 545.01 -487.4 524 -294.56 507.43 -126.22 490.55 -62.97 477.46 -128.32 467.27 -288.68 455.68 -463.16 445.47 -571.63 435.12 -569.13 421.22 -455.67 404.7 -280.52 383.53 -108.81 355.98 -4.69 321.06 2.53 277.09 -82.8 225.09 -220.42 163.18 -356.94 91.62 -450.46 14.92 -466.81 -67.71 -404.98 -152.75 -281.16 -233.17 -129.87 -307.22 12.83 -369.12 151.38 -424.91 99.78 -388.68 -20.84 -299.87 -103.79 -226.21 -165.4 -149.56 -199.08 -80.35 -206.75 -31.67 -185.88 -9 -143.44 -18.89 -82.68 -63.6 -12.5 -139.47 59.71 -238.99 137.03 -349.14 208.8 -456.23 272.26 -544.49 335.25 -600.53 388.7 -615.2 432.54 -584.73 475.81 -515.22 510.35 -415.54 536.17 -301.94 561.99 -196.21 578.48 -115.85 585.51 -73.05 591.96 -74.24 588.07 -116.58 573.77 -190.96 559.01 -286.94 535.07 -386.09 504.6 -472.87 479.22 -537.3 454.89 -567.7 438.87 -561.04 441.17 -519.38 463.91 -447.67 513.96 -355.67 590.03 -252.33 692.79 -149.9 815.53 -58.12 938.66 17.11 1051.7 69.5 1134.09 97.79 1168.26 101.84 1147.05 85.33 1070.68 53.55 961.83 8.26 842.76 -41.59 749.41 -90.4 718.05 -138.33 763.13 -177.33 883.52 -205.19 1046.92 -224.3 1209.56 -230.54 1317.96 -224.98 1333.78 -210.19 1250.73 -185.96 1097.94 -154.73 941.71 -117.36 845.04 -76.26 857.08 -33.65 980.1 11.86 1166.89 56.53 1337.24 98.87 1412.59 142.18 1356.98 182 1193.77 217.51 1006.03 253.19 885.68 284.16 898.34 309.98Q898.37 309.99 898.37 309.99" opacity="0.79"></path><path d="M864.37 187.72C998.45 212.37 1184.03 233.25 1333.67 250.71 1382.33 268.52 1307.56 283.62 1145.5 296.87 963.88 311.58 838.05 325.93 813.29 341.34 894.46 360.15 1042.05 382.24 1194.43 409.31 1297.54 442.06 1310.56 481.95 1232.36 530.17 1087.69 584.97 923.46 648.38 786.68 719.77 708.91 794.56 706.17 873.62 768 953.6 875.28 1028.13 991.54 1095.81 1086.36 1151.58 1143.22 1190.7 1146.44 1210.61 1099.76 1208.3 1011.24 1185.32 898.51 1141.31 779.9 1079.61 663.86 1009.75 567.55 935.78 496.25 866.81 437.57 799.81 446.28 844.82 479.39 961.94 507.16 1063.92 529.39 1170.05 543.39 1266.41 557.41 1339.59 561.75 1379.26 556.19 1378.38 550.22 1337.83 534.92 1261.45 510.28 1160.09 485.63 1051.54 452.22 952.54 410.18 877.57 367.74 837.05 316.09 835.11 255.6 869.72 195.11 936.24 127.23 1021.87 54.74 1113.33 -12.51 1200.75 -77.41 1269.51 -133.27 1311.37 -172.22 1323.46 -191.38 1302.94 -184.42 1253.46 -153.58 1180.16 -96.55 1091.17 -18.5 995.58 62.11 899.66 138.16 812.65 191.42 740.1 202.84 684.49 165.77 648.7 76.62 631.87 -50.5 633.46 -197.52 649.47 -333.91 675.57 -424.84 711.47 -449.53 749.93 -397.42 787.13 -286.31 824.85 -145.96 856.32 -23.27 880.05 32.93 899.4 -0.17 909.85 -121.34 911.94 -291.78 909.07 -455.42 899.13 -550.49 883.55 -539.65 864.57 -425.58 841.89 -253.48 816.97 -100.92 790.45 -33.41 763.22 -86.94 736.31 -241.47 708.98 -429.54 682.77 -563.62 658.12 -578.95 633.48 -468.88 610.98 -287.78 590.3 -116.86 569.21 -31.47 549.13 -63.17 529.18 -195.29 507.62 -365.44 484.64 -500.86 458.91 -549.93 429.77 -491.64 395.95 -351.23 356.11 -177.14 311.31 -30.62 259.21 44.71 199.4 31.47 135.2 -57.57 64.45 -185.81 -11.24 -315.85 -86.43 -403.22 -161.58 -425.88 -232.74 -380.24 -294.11 -277.81 -343.97 -144.66 -377.86 -3.2 -393.34 116.78 -388.32 199.18 -361.81 238.41 -318.37 234.18 -258.8 197.25 -188.55 134.22 -118.62 63.6 -53.51 -1.96 -2.19 -61.5 25.3 -101.64 25.74 -121.11 -4.39 -124.47 -64.31 -109.68 -149.11 -81.83 -250.43 -43.38 -355.8 0.89 -453.2 46.28 -529.24 95.53 -573.37 141.33 -578.69 181.21 -543.07 221.79 -472.99 254.89 -376.49 279.54 -267.94 304.19 -166.57 319.8 -87.69 327.22 -42.24 335.35 -36.48 336.86 -68.88 334.09 -132.54 335.18 -219.39 336.55 -313.75 342.81 -401.83 359.67 -474.48 388.65 -519.58 434.71 -532.37 496.88 -512.91 578.66 -462.81 678.67 -388.85 784.7 -297.89 894.61 -200.04 995.64 -104.52 1070.56 -17.14 1111.49 54.29 1107.54 106.38 1060.42 137.79 974.28 148.64 865.12 141.83 764.27 118.37 692.58 84.52 676.02 45.25 727.77 0.54 842.56 -41.83 998.26 -78.63 1208.64 -124.1 1183.82 -157.37 964.58 -146.53 842.22 -130.89 799.96 -109.2 862.91 -83.3 1012.21 -54 1194.13 -22.69 1335.78 9.07 1377.03 42.3 1298.92 74.5 1132.91 104.7 956.67 135.24 849.06 163.07 864.34 187.71Q864.37 187.72 864.37 187.72" opacity="0.22"></path><path d="M830.37 127.71C956.14 151.18 1132.23 173.69 1282.84 195.49 1348.51 217.68 1301.56 239.92 1164.05 262.97 988.7 287.48 842.41 314.17 775.15 344.11 806.31 377 918.11 414.7 1065.33 458.17 1199.81 505.61 1272.56 559.6 1263.03 620.17 1175.15 683.7 1035.22 752.38 882.57 824.47 751.16 894.85 672.45 964.05 656.64 1028.49 701.37 1083.17 787.7 1126.67 890.14 1155.16 990.81 1166.85 1063.35 1159.87 1096.6 1133.43 1088.99 1091.77 1041.39 1035.3 964.66 968.64 865.68 901.58 760.22 837.65 659.32 784.76 564.18 752.31 485.8 743.34 425.32 761.88 379.23 808.64 348.85 880.4 329.84 971.24 320.55 1071.2 316.26 1170.21 312.79 1256.19 313.07 1318.21 309.93 1348.11 301.11 1340.7 293.03 1297.78 277.67 1223.03 254.2 1126.09 230.73 1022.63 199.7 927.12 162.06 852.32 125.16 807.65 83.25 797.5 38.7 821.15 -2.09 875.69 -41.28 951 -74.57 1036.08 -98.15 1122.73 -109.45 1197.42 -104.04 1251.7 -84.24 1281.97 -45.52 1283.21 11.07 1256.52 73.42 1205.06 141.46 1133.89 204.28 1050.22 244.83 959.26 257.49 869.46 231.52 786.91 164.68 714.41 59.91 656.9 -71.51 615.58 -204.72 590.49 -320.35 580.8 -392.78 583.82 -404.69 599.23 -352.12 622.02 -245.15 648.68 -116.94 680.43 0.24 710.99 67.18 738.07 55.77 764.75 -36.09 785.45 -187.79 799.55 -415.75 813.45 -402.14 806.04 -168.3 788.23 -39.86 773.6 0.17 755.87 -70.13 735.77 -225.38 715.3 -403.84 693.19 -529.62 669.72 -547.27 646.24 -449.67 621.97 -281.24 596.72 -110.86 571.1 -7.3 543.78 -7.01 514.15 -106.96 483.18 -262.58 448.72 -411.91 409.99 -502.94 368.84 -500.54 322.38 -408.81 270.19 -257.25 215.41 -95.43 155.06 29.51 89.83 87.24 24.21 66.79 -43.75 -16.42 -111.68 -138.15 -174.52 -258.2 -232.25 -345.13 -281.24 -382.29 -317.86 -359 -340.4 -284.16 -346.08 -170.68 -335.53 -42.22 -307.32 80.03 -262.54 184.88 -207.71 257.12 -144.04 294.67 -77.52 299.05 -18.29 276.59 30.13 237.47 60.66 184.01 66.42 130.32 46.06 83.39 -1.4 39.57 -72.88 9.18 -162.84 -7.59 -262.73 -17.03 -361.07 -14.75 -447.59 -3.58 -511.2 12.03 -543.91 32.66 -540.68 55.75 -500.67 80.04 -430.52 104.44 -337.4 127.91 -233.94 151.38 -136.99 173.38 -59.85 194.8 -12.28 217.43 -0.22 241.85 -23.19 270.49 -76.15 303.59 -153.06 344.78 -240.86 396.81 -327.59 456.16 -405.18 528.24 -461.67 612.73 -491.23 700.33 -492.57 793.69 -464.48 885.7 -411.09 963.37 -337.27 1023.25 -250.6 1055.06 -159.09 1053.7 -67.99 1016.41 14.61 945.16 83.98 856.48 138.14 760.25 174.42 677.53 193.49 633.44 195.76 639.42 184.5 704.28 163.4 818.92 132.55 965.09 98.29 1111.27 64.08 1218.94 28.16 1262.16 -3.09 1225.39 -28.08 1121.39 -50.11 978.71 -64.43 844.34 -71.2 769.79 -73.99 782.65 -70 886.9 -60.3 1049.46 -47.66 1216.3 -30.87 1325.33 -11.12 1334.13 10.09 1237.52 32.9 1071.79 56.43 907.99 80.34 812.74 104.23 830.34 127.7Q830.37 127.71 830.37 127.71" opacity="0.49"></path><path d="M796.37 147.55C913.98 169.84 1080.2 193.91 1229.97 219.82 1309.92 246.05 1289.34 274.73 1178.87 306.29 1017.28 338.92 860.96 375.35 759.74 416.08 742.07 458.62 808.3 506.11 930.74 558.65 1072.34 612.8 1185.24 671.52 1237.86 733.88 1218.33 795.58 1131.49 858.44 1001.86 920.17 856.59 976.35 729.89 1026.95 644.44 1068.81 610.85 1099.09 630.09 1116.24 689.69 1118 777.99 1105.31 871.23 1076.79 951.87 1033.42 1012.8 981.17 1040.94 920.73 1036.05 857.23 1001.21 799.71 941.72 750.93 866.88 717.2 779.29 705.19 690.71 716.34 607.39 752.37 526.45 811.8 456.64 890.68 398.39 982.61 346.38 1078.16 304.47 1168.58 270.42 1243.65 240.28 1294.71 214.66 1315.43 191.46 1302.19 169.34 1257.42 147.52 1184.56 125.22 1092.09 102.92 993.73 80.67 901.92 59.36 827.78 39.13 779.73 21.96 762.24 10.04 775.56 2.04 818.2 2.63 882.36 14.19 959.19 31.98 1042.12 62.19 1119.05 104.48 1181.81 149.17 1226.59 200.06 1246.95 251.04 1242.02 289.26 1213.37 313.21 1163.24 313.69 1096.81 284.2 1018.07 222.88 933.96 130.04 850.32 17.5 769.84 -106.35 698.42 -223.88 638.67 -312.7 590.98 -359.77 557.06 -352.51 535.95 -293.39 527.2 -191.53 528.42 -69.47 536.95 36.93 553.32 102.17 572.8 101.8 592.91 29.29 615.97 -101.76 636.61 -259.71 653.45 -398.5 670.25 -479.25 682 -474.16 688.37 -385.52 693.74 -239.86 693.78 -86.87 688.72 14.99 682.89 29 672.53 -55.35 657.94 -209.53 643.11 -378.01 624.51 -495.62 602.21 -515.29 579.91 -429.71 554.45 -274.66 525.85 -107.69 497 9.77 464.57 39.23 428.35 -26.6 391.36 -159.29 350.01 -309.5 304.18 -429.65 257.36 -477.44 206.01 -440.64 150.57 -330.93 95.08 -181.34 36.77 -33.59 -22.9 78.21 -79.63 127.59 -134.65 110.52 -185.39 35.28 -228.3 -72.2 -262.71 -182.86 -285.87 -276.28 -296.67 -328.21 -293.37 -331.42 -274.91 -287.45 -244.39 -204.86 -200.8 -99.46 -146.66 18.31 -89.34 129.47 -30.06 223.15 25.45 296.74 68.67 343.51 97.19 365.99 105.96 366.51 91.01 351.08 52.48 326.78 -8.63 292.81 -87.73 259.49 -179.17 231.1 -274.68 201.96 -364.1 181.43 -438.91 170.27 -490.17 160.61 -512.11 159.9 -501.19 167.5 -457.57 175.76 -387.85 191.17 -298.3 213.46 -199.94 235.76 -107.47 264.42 -32.33 299.59 16.84 335.42 34.51 378.92 20.36 430.63 -22.07 483.84 -88.53 545.68 -168.3 615.27 -251.27 684.12 -330.62 757.04 -394.99 829.66 -438.08 892.6 -457.77 945.73 -450.75 981.83 -418.85 995.97 -365.25 984.76 -294.85 945.55 -214.12 886.25 -127.39 808.28 -42.13 722.4 36.44 648.9 106.14 596.91 162.5 582.15 204.41 614.57 231.88 694.32 245.35 814.07 246.98 951.05 237.02 1083.38 219.61 1181.85 197.8 1222.16 170.44 1194.4 143.12 1102.5 118.04 974.64 92.29 843.22 71.25 749.84 55.74 729.36 41.85 791.65 33.96 924.36 31.87 1087.15 31.6 1230.5 36.48 1304.97 45.9 1284.15 56.39 1173.28 70.51 1010.72 87.72 860.07 105.23 776.72 125.24 796.34 147.54Q796.37 147.55 796.37 147.55" opacity="0.96"></path><path d="M762.37 241.42C871.97 262.54 1028.01 287.32 1175.26 315.64 1266.64 344.13 1270.35 376.47 1188.11 412.69 1046.43 449.39 890.3 490.27 765.65 535.23 704.98 580.63 722.02 629.87 805.27 682.32 930.93 734.09 1059.21 787.71 1155.85 841.67 1200.12 892.18 1179.56 940.24 1102.09 983.56 983.27 1019.3 849.59 1046.76 726.2 1063.63 629.61 1069.44 575.31 1062.5 565.03 1042.05 596.1 1011.2 656.51 968.83 731.57 917.15 813.88 862.81 885.67 806.51 938.52 753.14 972.13 710.35 980.14 679.99 965.33 666.69 930.81 674.48 881.06 703.57 822.46 753.89 754.87 822.37 686.74 904.85 622.04 994.9 556.19 1083.96 497.21 1164.65 446.09 1228.54 396.03 1268.99 353.72 1281.23 318.9 1262.86 284.6 1216.77 256.9 1146.04 235.78 1058.09 214.65 964.85 200.6 876.92 193.76 803.91 187.43 753.26 189.19 729.33 199.42 733.12 210.69 764.17 230.54 816.71 258.06 883.83 284.43 960.49 315.05 1036.2 346.02 1103.44 375.05 1176.56 341.19 1188.26 254.17 1128.36 168.77 1067.27 65.54 995.98 -46.99 919.53 -152.28 840.27 -241.7 764.04 -300.45 694.16 -317.86 631.16 -289.93 578.47 -218.28 536.59 -119.83 504.89 -9.67 483.48 87.14 470.8 142.61 466.64 142.7 468.4 79.59 473.97 -35.89 484.57 -181.38 496.08 -322.53 506.85 -421.27 519.66 -452.06 529.86 -403.31 536.52 -290.58 543.6 -144.53 546.39 -11.01 544.53 63.06 542.58 53.14 535.9 -42.41 524.4 -193.84 512.82 -352.02 496.52 -461.62 475.4 -483 454.28 -408.92 428.82 -267.77 399.26 -106.83 369.62 20.21 335.76 75.08 297.87 43.36 259.89 -60.24 217.97 -199.41 172.56 -334.22 127.57 -421.27 79.85 -437.79 30.43 -381.09 -16.93 -266.62 -64.15 -125.01 -109.43 13.43 -149.69 116.46 -185.13 166.6 -213.53 158.51 -233.42 100.27 -243.45 10.62 -241.98 -94.25 -230.33 -188 -206.66 -254.11 -171.35 -286.04 -129.16 -276.82 -79.29 -231.49 -24.98 -155.73 26.53 -61.75 74.3 38.35 113.39 140.37 137.35 231.33 144.8 306.5 132.63 367.4 99.42 409.87 46.3 436.65 -24.33 450.04 -107.06 453.37 -196.52 451.21 -285.1 442.3 -364.14 433.43 -426.78 427.67 -465.99 419.86 -477.94 417.84 -460.25 422.97 -413.79 427.79 -344.96 440.5 -259.18 461.62 -165.94 482.74 -77.99 511.78 -5.11 548.1 45.16 584.12 67.73 626.68 61.71 674.33 29.42 719.93 -26.3 767.93 -96.9 815.17 -174.04 855.66 -252.16 889.85 -320.89 913.09 -373.9 922.92 -408.73 916.16 -420.62 889.96 -409.57 849.48 -377.43 792.19 -326.61 722.73 -261.83 655.18 -186.47 592.63 -106.64 547.09 -27.36 531.97 49.26 551.74 117.99 611.35 176.53 705.14 224.68 825.25 260.63 955.07 285.05 1110.57 300.4 1112.16 281.27 951.28 258.26 779.88 230.02 772.39 184.2 969.5 171.27 1177.45 163.75 1167.12 173.74 949.96 190.49 812.97 203.32 741 220.29 762.34 241.41Q762.37 241.42 762.37 241.42" opacity="0.49"></path><path d="M728.37 381.79C830.11 401.75 975.75 425.94 1118.91 454.12 1218.84 482.3 1244.18 514.46 1190.13 550.27 1072.95 585.95 926.27 625.03 789.67 666.92 695.53 708.02 665.85 751.07 702.23 794.97 793.67 836.51 912.38 877.15 1028.02 915.26 1117.91 948.44 1159.31 976.6 1146.3 997.88 1082.59 1011.47 981.29 1015.95 861.94 1010.06 739.97 995.45 636.1 970.29 561.8 935.03 521.56 894.18 517.14 846.73 542.23 795.49 592.62 746.92 655.42 701.5 720.34 663.45 785.5 638.61 838.59 628.02 875.99 634.61 900.51 660.19 907.49 704.09 899.51 764.92 879.58 838.71 849.59 921.39 813.62 1006.89 771.41 1087.75 728.11 1157.92 686.6 1210.62 643.04 1241 603.83 1245.51 570.41 1222.73 536.63 1175.82 509.44 1107.47 489.49 1024.09 469.54 935.98 457.3 852.1 452.21 780.68 447.23 713.48 460.67 734.37 469.86 811.16 469.63 879.46 464.19 950.87 449.54 1018.76 422.95 1080 382.25 1127.24 324.97 1157.38 254.81 1170.24 169.92 1163.71 74 1139.3 -21.65 1098.99 -114.15 1045.6 -193.08 983.03 -246.72 913.23 -269.69 841.13 -255.6 770.21 -207.45 700.99 -128.48 637.69 -30.08 581.8 65.71 532.59 144.79 492.06 187.73 459.8 179.96 434.91 119.23 417.02 11.55 404.7 -121.88 397.95 -256.85 394.59 -362.91 393.09 -413.91 394.8 -397.22 396.46 -314.34 396.87 -189.01 398.73 -51.86 398.14 57.62 394.38 103.96 391.09 72.76 384.07 -31.11 372.9 -178.21 361.83 -325.88 346.43 -427.62 326.48 -450.42 306.53 -387.25 282.5 -260.28 254.72 -107.69 227.02 24.64 195.75 100.44 161.41 101.01 127.55 30.12 91.18 -88.12 53.12 -223.08 16.51 -335.01 -20.57 -396.25 -56.86 -394.45 -89.93 -329.65 -120.29 -219.17 -146.31 -84.84 -166.75 43.87 -180.66 143.81 -186.53 201.39 -185.02 209.38 -174.19 173.42 -153.53 101.48 -126.19 12.43 -90.29 -76.42 -47.22 -155.94 -2.45 -210.03 44.74 -233.69 90.98 -227.5 130 -192.08 161.18 -134.47 180.73 -58.39 184.36 25.95 171.56 110.97 140.92 196.86 92.98 274.19 29.49 340.61 -46.36 399.83 -128.87 447.27 -213.27 484.58 -292.83 515.26 -360.48 538.97 -410.83 558.3 -438.57 574.32 -441.42 589.11 -417.91 604.56 -369.37 619.17 -301.9 636.09 -220.05 656.04 -131.94 675.99 -48.56 698.5 21.82 722.75 72.68 746.17 99.42 769.66 100.79 791.28 78.12 809.57 33.13 822.83 -27.5 828.35 -97.1 827.25 -171.34 815.25 -241.04 790.61 -300.2 758.77 -346.42 715.16 -374.06 662.03 -381.85 609.76 -370.66 557.21 -340.74 511.87 -295.13 485.01 -236.31 479.27 -168.68 501.62 -96.55 553.81 -21.75 635.28 50.59 740.95 117.59 855.96 179 969.91 231.56 1065.42 274.73 1124.95 309.16 1139.2 334.38 1102.41 351.55 1023.25 361.02 913.87 364.66 797.33 364.25 704.64 358.9 656.08 351.98 668.88 345.01 744.72 335.68 869.63 328.08 1015.85 323.17 1145.37 317.48 1225.81 315.36 1232.96 317.3 1164.9 319.11 1038.44 325.24 889.8 335.92 766.76 346.6 705.58 361.84 728.34 381.78Q728.37 381.79 728.37 381.79" opacity="0.21"></path><path d="M694.37 527.51C788.42 546.29 923.49 568.57 1061.14 594.03 1166.77 619.38 1210.64 647.65 1183.61 678.33 1093.79 708.43 964.34 740.3 827.17 773.12 711.45 804.4 642.73 835.46 631.71 865.13 677.9 891.68 766.39 915.16 874.93 934.18 984.12 948.19 1068.5 955.98 1113.67 956.37 1114.6 950.51 1070.72 936.38 991.81 913.73 887.87 885.72 776.01 850.46 670.56 809.24 579.06 767.06 512.63 722.99 473.71 679.9 461.89 643.36 474.15 613.59 503.87 593.89 549.12 588.13 599.63 596.72 649.05 621.13 699.06 661.36 740.3 716.25 770.91 783.58 795.38 858.98 808.48 938.75 811.63 1017.44 809.06 1088.79 799.19 1147.99 784.31 1189.74 766.5 1210.68 746.42 1208.27 725.79 1181.82 704.4 1134.59 683.96 1068.86 665.19 990.09 646.41 907.13 629.73 827.47 614.55 758.06 598.6 704.47 582.64 670.56 565.04 658.06 544.51 667.82 519.59 697.13 488.09 742.21 450.87 800.58 404.43 865.1 347.41 930.15 284.26 993.23 211.28 1047.31 130.44 1088.93 50.19 1117.6 -30.24 1129.91 -104.43 1126 -163.09 1107.19 -203.3 1074.31 -218.35 1030.04 -206.3 975.93 -165.65 915.54 -98.76 851.99 -17.92 785.79 70.49 721.05 152.26 659.8 209 601.29 231.96 548.63 211.49 502.33 146.76 461.03 44.19 426.18 -81.74 397.18 -207.03 372.95 -310.82 353.34 -370.77 337.28 -373.52 324.59 -317.03 313.89 -211.9 304.13 -85.33 296.24 35.14 288.01 117.72 278.62 137.5 270.03 88.1 259.47 -21.23 246.43 -162.59 233.59 -299.57 217.89 -393.62 199.12 -417.52 180.34 -364.65 158.92 -251.96 135.19 -109.71 111.65 23.83 86.18 115.61 59.36 145.11 33.33 108.04 6.78 17.9 -19.4 -104.16 -43.7 -225.2 -66.36 -317.45 -86.21 -363.81 -102.69 -353.02 -114.82 -289.99 -121.43 -186.56 -123.26 -63.68 -118.34 56.8 -105.99 159.11 -88.63 226.99 -63.92 255.1 -32.28 243.21 2.09 198.31 41.05 132 82.64 51.41 121.58 -27.04 158.53 -93.27 190.47 -158.9 218.56 -142.85 192.93 -75.29 132.27 -13.38 73.9 53.48 4.52 120.51 -72.31 190.16 -151.13 254.77 -227.87 312.58 -296.84 368.69 -352.52 417.16 -390.8 458.27 -407.82 497.59 -402.58 530.73 -374.2 558.47 -324.34 585.62 -258.65 608.47 -180.9 627.25 -97.94 646.02 -19.17 660.29 48.47 669.73 99.42 678.56 129.59 681.46 137.54 677.56 123.85 671.87 89.36 658.19 39.13 636.15 -21.61 612.41 -89.7 581.15 -157.25 544.05 -218.89 509.55 -272.46 474.42 -312.05 443.33 -335.54 424.55 -343.21 418.56 -333.61 430.83 -308.3 464.29 -269.05 520.31 -218.38 598.75 -159.66 691.85 -94.41 796.09 -26.9 901.29 39.89 992.23 105.72 1060.57 166.76 1094.65 221.64 1088.73 271.16 1041.77 313.24 959.02 348.05 858.08 376.6 753.4 398.74 666.7 415.57 620.41 427.38 624.9 435.64 685.01 441.63 791.01 444.51 924.27 446.8 1056.94 449.59 1157.69 450.84 1203.75 453.75 1181.52 459.06 1097.02 463.79 969.01 471.56 830.47 482.79 721.47 493.9 670.47 508.73 694.34 527.5Q694.37 527.51 694.37 527.51" opacity="0.86"></path><path d="M660.37 635.83C746.91 653.43 871.32 672.84 1002.18 693.77 1110.74 714.5 1169.73 736.38 1167.52 758.85 1106.16 780.56 999.79 802.1 872.32 822.67 747.87 841.5 651.63 858.25 599.28 871.96 645.49 890.54 827.69 889.68 1005.46 863.6 1078.9 822.02 1002.2 757.84 831.07 679.81 630.42 612.83 481.39 562.28 410.49 548.31 413.22 586.1 463.35 675.53 523.08 807.58 557.57 881.15 586.92 955.32 609.55 1025.4 631.03 1086.34 644.94 1134.46 651.46 1165.71 656.57 1178.01 655.17 1169.54 647.88 1140.16 640.1 1093.09 627.3 1030.19 609.7 956.09 592.09 878.3 570.1 803 543.59 736.03 516.6 682.07 484.21 644.62 445.89 625.54 406.17 626 359.65 644.33 306.24 677.96 251.66 725.39 191.05 780.99 126.05 840.23 -48.74 1004.05 -93.92 1046.2 109.82 923.77 234.81 809.03 269.76 692.03 159.66 585.87 -54.76 488.33 -268.53 410.29 -340.55 350.06 -301.1 323.91 -216.33 300.94 -101.81 280.45 15.71 261.71 113.68 244.42 168.24 227.96 163.67 212.32 99.49 196.7 -12.54 180.69 -146.88 164.89 -273.08 148.27 -359.62 130.66 -384.32 113.06 -341.07 94.89 -242.55 76.4 -112.24 58.13 18.7 39.95 121.28 22.39 175.08 5.66 170.49 -9.66 112.53 -22.86 13.73 -34.31 -101.27 -42.61 -208.11 -46.96 -327.92 -47.75 -259.21 -27.71 -61.26 15.56 158.6 67.46 285.05 133.91 287.5 202.51 185.97 248.76 51.93 267.09 -52.49 241.27 -112.06 165.66 -103.56 46 -48.84 -99.57 -8.48 -171.72 35.88 -238.78 81.04 -296.15 129.57 -339.72 175.57 -366.47 217.29 -373.72 259.77 -361.45 296.75 -329.19 327.51 -278.73 358.32 -215.24 382.72 -141.73 400.33 -63.94 417.94 10.16 428.33 74.85 431.81 125.41 433.75 165.11 407.66 122.14 384.38 51.28 371.16 -8.85 358.05 -71.57 348.19 -132.23 354.48 -238.47 403.94 -296.35 517.76 -297.48 676.44 -246.86 861.03 -154.57 1008.73 -41.46 1052.45 82.72 967.76 197.45 784.56 293.29 623.26 373.64 586.09 432.49 731.69 474.92 851.42 491.73 977.89 506.24 1086.64 519.35 1154.55 530.72 1167.57 541.79 1120.58 553.29 1024.82 564.01 899.06 575.92 772.23 589.47 677.17 602.83 635.67 618.22 660.34 635.82Q660.37 635.83 660.37 635.83" opacity="0.45"></path><path d="M626.37 674.99C821.65 707.85 1053.52 739.41 1141.18 767.23 1027.12 792.21 795.8 808.21 605.09 810.44 560.57 804.21 670.25 779.21 844.69 734.55 994.09 684.72 1033.1 623.67 959.62 562.37 804.34 521.87 629.86 505.97 485.9 528.35 384.15 594.55 339.14 700.91 331.75 834.41 367.26 1024.29 407.37 1091.68 371.4 922.09 338.54 778.71 280.6 660.88 201.94 596.37 126.62 597.91 40.47 657.06 -38.8 751.66 -88.35 864.27 -97.47 961.14 -46.36 1023.46 46.95 1048.15 174.25 1027.6 286.46 971.32 316.87 887.01 238.89 788.68 55.29 689.59 -153.36 588.73 -292.51 499.57 -272.08 424.95 -105.46 356.36 107.15 300.45 208.53 254.72 108.18 211.51 -130.34 174.06 -325.62 141.2 -316.55 108.34 -113.28 81.62 118.5 62.86 214.64 46.61 119.09 42.74 -79.23 54.37 -252.12 72.04 -283.11 107.09 -168.29 157.31 33.5 205.74 222.03 256.9 330.45 298.15 340.93 311.36 272.79 292.97 175.32 234.07 68.13 137.54 -2.9 11.2 -30.68 -125.49 -29.69 -244.18 0.88 -322.04 43.39 -336.28 94.43 -284.47 140.25 -173.32 173.12 -29.94 205.98 100.79 224.32 185.17 235.25 205.79 254.72 159.84 283.9 67.53 339.85 -42.74 424.57 -152.15 549.71 -229.05 707.55 -261.05 855.67 -249.22 971 -194.36 1003.62 -110.81 938.29 -6.44 788.73 101.77 621.14 202.26 540.51 297.56 600.94 376.68 797.9 439.87 1020.32 494.58 1134.61 538.37 1051.2 575.36 832.11 609.52 635.47 642.12 626.34 674.98Q626.37 674.99 626.37 674.99" opacity="0.96"></path><path d="M592.37 633.5C914.08 692.26 535.9 655.47 669.54 591.6 894.54 526.74 872.89 470.85 672.06 533.24 525.94 619.62 410.22 733.87 330.34 861.43 274.93 979.29 243.52 1068.67 221.86 1107.85 207.75 1088.9 188.54 1010.72 158.03 888.09 127.52 754.52 87.14 640.82 43.71 570.5 7.83 555.71 -16.27 592.92 -13.74 667.03 13.25 766.25 78.72 862.76 177.82 938.53 271.86 989.86 347.57 1003.91 361.93 984.02 289.1 936.12 133.65 867.21 -63.47 788.55 -218.46 700.64 -266.67 615.86 -170.62 539.9 14.29 464.99 190.37 401.32 238.31 349.45 112.98 298.84 -114.29 258.15 -291.62 227.63 -290.94 197.12 -115.11 178.22 108.67 171.28 241.97 165.6 210.73 173.76 55.37 195.8 -134.06 218.87 -242.79 253.41 -225.35 294.28 -95.41 325.92 87.06 351.03 252.27 358.94 365.13 338.85 400.84 288.62 377.65 205.53 308.95 97.99 232.26 -25.87 171.3 -147.46 116.08 -243.95 89.69 -298.54 88.29 -295.54 93.17 -237.01 113.17 -129.51 143.67 4.05 174.19 126.69 213.77 211.07 266.43 241.81 325.37 214.42 407.26 142.41 515.35 46.93 629.19 -58.26 756.13 -145.15 871.88 -199.77 942.11 -221.23 950.22 -203.36 877.37 -154.28 752.17 -80.27 605.86 7.36 507.67 97.32 521.98 190.91 658.06 275.8 869.86 348.54 1047.6 417.36 1096.24 474.44 974.75 520.99 762.75 565.65 593.08 602.97 592.34 633.49Q592.37 633.5 592.37 633.5" opacity="0.79"></path><path d="M558.37 523.53C718.09 551.7 925.41 567.76 1057.15 571.9 1047.61 575.36 903.2 566.02 705.75 544.72 541.06 523.8 478.29 493.9 522.32 459.94 646.8 435.34 786.76 417.5 889.9 415.13 938.31 436.82 915.89 484.26 842.89 559.87 732.74 657.13 615.17 770.57 509.98 885.98 409.02 984.55 331.11 1052.39 274.22 1073.91 222.34 1045.88 183.76 968.39 155.59 854.09 127.43 730.44 111.01 621.87 109.77 547.82 113.53 519.3 140.2 536.13 192.36 588.78 248.73 670.06 319.92 758.26 386.66 837.58 416.24 904.85 398.23 944.87 312.91 956.4 172.85 944.36 -0.5 909.13 -154.31 858.75 -227.67 795.53 -190.15 728.04 -46.11 662.89 130.68 594.86 259.06 534.15 257.73 483.51 115.12 432.87 -97.9 392.78 -257.62 364.61 -264.21 336.44 -115.59 321.53 93.44 319.05 251.35 316.56 279.09 326.03 181.11 345.25 -65.52 372.14 -115.14 406.88 99.35 379.41 257.72 330.97 375.49 257.56 441.84 160.96 461.5 52.32 445.54 -61.14 415.71 -163.06 370.81 -236.36 336 -269.23 320.05 -251.6 304.05 -188.44 309.52 -85.58 337.67 38.05 365.84 152.36 415.37 235.57 484.48 274.48 553.54 263.84 639.59 212.04 733.31 134.12 811.96 39.36 874.31 -48.82 898.09 -116.75 875.16 -163.04 797.84 -177.09 676.39 -161.86 558.23 -122.58 472.75 -64.3 468.71 3.7 565.07 81.07 741 157.36 932.95 227.09 1051.6 297.2 1039.93 357.78 892.91 407.44 694.75 456.42 551.81 495.35 558.34 523.52Q558.37 523.53 558.37 523.53" opacity="0.20"></path><path d="M524.37 377.33C666.87 403.15 857.91 416.82 1000.11 419.37 1033.7 422.29 943.38 415.11 777.55 400.3 536.98 381.67 536.26 367.25 701.44 400.05 806.95 447.14 868.31 515.26 881.74 603.16 855.45 701.98 797.39 806.99 726.2 905.54 641.88 983.37 564.1 1030.6 501.17 1036.62 437.72 1001.5 392.04 925.82 366.22 820.09 340.4 706.49 335.67 603.94 350.42 528.22 364.65 488.76 395.47 487.48 435.05 519.02 461.49 579.61 477.03 653.34 463.53 727.35 410.3 799.61 311.87 854.84 172.52 889.01 24.7 906.56 -108.3 902.74 -183 882.08 -171.87 848.64 -71.58 805.94 88.33 759.85 235.23 708.78 310.86 660 267.3 617.2 115.14 573.49 -81.12 537.79 -223.62 511.97 -236.33 486.14 -114.14 471.43 74.63 466.44 244.34 460.55 320.51 462.36 284.68 468.68 158.3 470.03 5.54 470.21 -112.9 463.86 -167.57 444.74 -139.1 411.5 -48.05 360.11 85.07 292.1 222.86 206.26 340.16 107.12 435.72 6.23 496.16 -90.65 529.39 -170.18 542.64 -220.65 545.63 -234.07 549.88 -204.58 549.57 -138.84 560.17 -41.54 585.99 72.05 611.81 177.78 651.62 258.71 700.62 303.81 745.06 307.76 789.04 275.23 820.55 216.34 832.08 136.7 814.16 54.85 758.41 -17.08 680.91 -78.1 580.18 -115.61 480.89 -128.86 423.66 -122.54 425.78 -96.04 507.32 -55.76 652.64 -3.93 828.56 52.95 973.87 109.14 1028.66 168.7 967.22 222.84 807.49 268.62 628.67 314.75 511.68 351.5 524.34 377.32Q524.37 377.33 524.37 377.33" opacity="0.30"></path><path d="M490.37 237.78C616.14 261.25 788.89 275.77 934.14 282.62 1001.63 290.46 964.33 292.69 844.69 292.19 681.91 296.3 531.01 302.51 430.71 315.09 396.02 338.32 425.66 373.73 496.2 424.23 594.15 487.97 685.51 566.53 753.04 656.42 800.9 748.48 816.45 839.07 807.11 917.8 781.25 974.73 744.39 1003.07 706.46 996.03 664.55 955.84 629.76 883.03 606.29 786.09 582.81 682.63 571.77 586.96 569.42 511.53 563.09 464.04 557.24 447.5 542.42 459.49 511.09 498.55 456.88 553.79 372.84 615.51 269.14 682.85 144.08 742.19 15.37 788.27 -85.93 825.3 -143.39 845.37 -133.15 849.94 -57.29 844.45 72.56 827.52 218.13 803.27 320.56 773.82 344.5 741.9 267.95 710.94 113.65 678.69 -63.85 649.96 -189.62 626.49 -207.27 603.01 -110.19 585.91 54.25 573.89 223.6 560.59 334.06 549.8 355.86 538.58 289.3 522.16 168.74 500.43 40.47 469.75 -67.52 429.01 -119.58 375.25 -112.21 307.46 -53.18 230.61 40.9 143.45 146.74 51.67 260.2 -34.49 358.97 -110.79 437.1 -167.05 505.05 -196.25 554.48 -193.08 590.65 -154.66 622.47 -88.3 648.69 2.59 672.16 106.05 695.63 202.99 715.25 280.57 727.7 329.83 735.81 345.94 729.08 330.96 701.82 291.25 664.37 229.72 604.25 160.18 526.97 92.56 457.3 27.1 396.9 -23.61 368.62 -56.59 392 -76.33 471.87 -78.04 604.3 -65.1 757.01 -41.51 898.63 -9.06 982.41 27.5 977.84 68.68 880.77 109.14 720.5 145.57 565.09 182.99 472.74 214.3 490.34 237.77Q490.37 237.78 490.37 237.78" opacity="0.39"></path><path d="M456.37 145.8C565.96 166.93 718.97 184.08 860.48 198.24 951.33 213.54 960.66 228.06 893.27 244.1 769.38 264.42 625.38 290.06 496.49 323.63 401 364.96 355.77 417.1 356.37 480.51 397.12 550.68 459.01 629.31 524.19 712.07 593.96 790.82 647.92 863.03 682.18 920.78 708.48 957.85 717.02 969.67 712.02 952.23 703.63 908.96 687.64 840.04 666.52 752.09 645.39 658.85 620.13 570.82 588.68 497.54 553.85 444.97 506.88 416.45 443.96 411.48 373.1 429.92 284.35 464.96 182.02 509.87 84.28 564.63 -7.93 618.28 -76.37 665.57 -104.66 710.42 -84.47 743.81 -10.98 764.98 95.91 780.07 220.96 784.06 329.36 778.98 381.27 769.85 359.92 754.88 260.92 736.38 111.25 716.69 -46.03 695.71 -155.62 674.58 -177.01 653.46 -103.21 633.19 34.36 613.04 192.71 591.7 321.61 568.25 389 540.77 383.96 509.24 317.05 470.47 216.19 422.83 100.47 369.1 5.27 305.38 -53.08 232.85 -74.9 157.87 -55.78 79.17 -7.87 2.41 63.23 -64.48 142.37 -118.48 217.87 -152.41 296.44 -162.93 362.7 -146.45 413.85 -102.03 463.99 -36.92 499.93 46.81 521.05 140.05 542.19 228 547.5 301.21 537.21 352.65 525.9 378.25 498.08 378.46 456.12 356.88 417.23 314.62 372.87 261.36 334.32 204.6 318.95 143.84 330.15 90.24 379.64 47.77 465.68 12.04 585.92 -9.76 723.64 -18.54 846.5 -19.55 932.37 -10.4 952.92 5.88 901.03 26.45 784.17 50.36 633.98 74.9 504.54 100.58 435 124.67 456.34 145.79Q456.37 145.8 456.37 145.8" opacity="0.84"></path><path d="M422.37 128.37C516.42 147.15 648.8 166.93 780.71 188.09 884 210.16 929.48 235.31 911.97 264.75 839 297.15 729.04 336.09 607.5 382.45 488.99 433.01 395.47 491.57 334.47 556.96 305.02 623.73 305.05 693.59 324.18 762.26 360.97 823.51 400.82 875.6 435.1 912.9 472.11 932.25 496.97 930.44 507.44 905.36 517.34 860.93 513.18 796.86 494.41 718.09 475.63 635.13 443.12 555.41 397.8 486.02 351.92 431.24 292.9 394.3 223.35 375.76 156.52 376.04 85.75 391.43 20.02 417.66 -28.04 455.15 -55.02 495.95 -50.19 535.59 -13.8 577.45 57.45 613.12 156.4 640.63 258.39 665.94 351.51 682.22 410.72 689.74 414.46 694.99 358.29 692.88 247.76 684.41 108.61 675.15 -27.57 660.93 -121.62 642.15 -145.52 623.38 -92.73 600.93 17 574.78 155.94 547.84 287.72 515.79 383.88 478 430.26 437.95 422.31 390.74 371.75 336.49 287.94 280.04 195.8 217.42 113.37 150.94 42.48 86.69 -0.82 23.63 -16.98 -33.41 -12.6 -79.19 11.25 -111.43 45.84 -125.49 90 -120.72 134.66 -94.47 173.66 -46.95 214.5 15.19 245.63 91.09 264.41 174.05 283.19 252.82 288.73 320.71 283.31 372.4 274.48 410.98 259.08 370.49 287.16 311.17 332.25 262.05 402.51 214.45 498.01 172.29 605.05 131.51 719.45 99.91 822.82 78.29 892.95 60.87 917.76 52.85 885.16 52.99 802.78 56.1 681.69 65.11 550.01 78.45 447.5 92.7 398.47 109.58 422.34 128.36Q422.37 128.37 422.37 128.37" opacity="0.56"></path><path d="M388.37 190.6C583.65 223.46 807.54 275.08 893.77 345.66 808.13 421.76 613.55 522.44 429.53 638.67 296.4 746.49 246.81 841.54 241.02 893.13 264.74 887.98 272.85 814.82 239.99 684.09 207.13 540.7 136.41 421.76 55.74 352.5 4.58 338.54 2.88 367.27 92.94 414.01 233.9 479.17 393.62 530.13 455.17 554.53 344.86 576.62 107.65 571.57 -87.62 538.71 -78.55 505.85 122.02 448.3 345.62 369.27 465.95 287.92 434.21 185.68 322.63 77.44 177.69 -12.36 86.22 -75.96 59.79 -86.09 62.38 -40.93 93.09 64.67 125.95 208.05 158.81 338.8 190.71 425.28 245.06 454.54 328.42 427.03 471.17 366.84 659.18 302.08 813.85 228.92 880.46 179.53 784.25 160.37 584.75 146.74 397.47 157.73 388.34 190.59Q388.37 190.6 388.37 190.6" opacity="0.17"></path><path d="M354.37 314.23C514.08 342.4 713.81 393.62 836.78 463.3 843.58 533.43 736.78 619.79 587.52 709.92 426.5 785.48 307.27 842.53 235.43 860.93 184.67 837.57 153.22 764.38 125.06 650.09 96.89 526.44 74.67 417.23 76.62 341.36 99.64 303.22 174.92 299.16 299.02 315.34 411.36 351.65 488.29 385.49 460.84 403.86 317.23 424.32 106.08 422.74 -53.62 394.58 -60.21 366.41 86.48 314.32 284.05 245.05 447.99 177.87 512.23 100.08 490.63 26.84 405.21 -26.24 315.35 -52.07 259.19 -34.58 208.32 20.62 198.22 118.41 226.39 242.05 254.54 356.35 318.3 440.98 417.96 484.99 522.93 487.24 656.76 460.06 779.11 421.42 837.65 368.2 803.3 325.8 660.03 304.48 483.11 283.61 347.8 286.06 354.34 314.22Q354.37 314.23 354.37 314.23" opacity="0.63"></path><path d="M320.37 463.02C446.13 486.49 612.2 529.18 744.63 584.97 815.34 638.47 799.39 699.44 725.89 756.57 613.29 799.23 500.19 823.02 412.6 816.33 328.24 781.95 273.28 713.02 249.81 616.09 226.33 512.63 236.57 416.65 280.26 341.41 327.17 289.13 403.64 260.91 485.47 250.66 528.21 256.92 519.27 267.33 431.35 272.07 281.72 280.54 106.13 275.51 -19.62 252.04 -37.27 228.57 58.8 188.87 212.3 139.73 376 94.31 494.5 47.27 552.09 10.25 557.93 -10.26 531.56 -6.94 504.58 28.12 467.33 86.14 454.69 172.59 478.16 276.05 501.61 372.99 558.97 451.44 636.89 503.04 704.55 526.94 767.57 528.05 792.51 516.16 765.7 489.79 672.11 465.45 525.63 452.62 389.33 437.51 302.74 439.54 320.34 463.01Q320.37 463.02 320.37 463.02" opacity="0.08"></path><path d="M286.37 593.32C380.42 612.1 507.42 641.62 625.95 676.94 746.63 725.98 711.01 782.69 629.89 759.96 569.08 721.61 524.26 660.86 505.48 582.09 486.7 499.13 495.75 419.3 524.01 351.22 545.45 295.07 570.42 253.76 578.62 226.01 553.19 208.87 486.26 198.21 375.33 188.79 243.03 182.62 108.42 171.67 14.37 152.89 -9.52 134.11 43.14 109.28 144.97 82.91 274.33 59.79 396.67 41.14 490.05 33.68 560.65 36.81 600.79 58.21 622.05 100.6 632.71 154.91 643.01 227.13 661.79 310.09 680.57 388.86 706.05 457.22 727.93 509.33 739.21 545.38 728.38 566.18 682.39 575.79 613.63 574.72 511.22 571.08 395.63 571.06 307.56 568.28 262.47 574.53 286.34 593.31Q286.37 593.32 286.37 593.32" opacity="0.60"></path><path d="M252.37 666.93C412.08 695.09 596.52 728.19 691.39 739.3 726.67 726.9 697.36 662.38 669.2 548.09 641.03 424.43 619.33 314 547.14 241.47 415.36 189.23 208.08 154.38 48.37 126.21 41.79 98.04 184.78 81.9 343.53 97.22 498.03 132.84 589.02 220.43 617.19 344.09 645.36 458.38 605.37 545.73 487.78 595.05 365.94 620.85 245.79 638.76 252.37 666.93Q252.37 666.93 252.37 666.93" opacity="1.00"></path><path d="M218.37 662.25C450.15 699.8 635.78 660.23 598.23 514.09 560.67 351.51 314.15 217.37 82.37 179.82 111.44 142.26 345.69 215.51 383.25 378.09 420.8 524.23 247.44 624.69 218.37 662.25Q218.37 662.25 218.37 662.25" opacity="0.79"></path></g></svg>